<?xml version="1.0" encoding="utf-8"?>
<!-- Generator: Adobe Illustrator 16.0.0, SVG Export Plug-In . SVG Version: 6.00 Build 0)  -->
<!DOCTYPE svg PUBLIC "-//W3C//DTD SVG 1.1//EN" "http://www.w3.org/Graphics/SVG/1.1/DTD/svg11.dtd">
<svg version="1.1" id="Layer_1" xmlns="http://www.w3.org/2000/svg" xmlns:xlink="http://www.w3.org/1999/xlink" x="0px" y="0px"
	 width="288px" height="288px" viewBox="0 0 288 288" enable-background="new 0 0 288 288" xml:space="preserve">
<path fill="#999999" stroke="#333333" stroke-width="30" stroke-miterlimit="10" d="M272.947,254.768
	c0,10.236-8.301,18.537-18.54,18.537H33.451c-10.238,0-18.539-8.301-18.539-18.537V33.809c0-10.238,8.3-18.539,18.539-18.539
	h220.956c10.239,0,18.54,8.3,18.54,18.539V254.768z"/>
<g>
	<g>
		<path fill="#666766" d="M136.5,82.351c0,41.099,0,82.198,0,123.298c0,9.673,15,9.673,15,0c0-41.1,0-82.199,0-123.298
			C151.5,72.678,136.5,72.678,136.5,82.351L136.5,82.351z"/>
	</g>
</g>
<g>
	<g>
		<path fill="#666766" d="M186.5,82.351c0,41.099,0,82.198,0,123.298c0,9.673,15,9.673,15,0c0-41.1,0-82.199,0-123.298
			C201.5,72.678,186.5,72.678,186.5,82.351L186.5,82.351z"/>
	</g>
</g>
<g>
	<g>
		<path fill="#666766" d="M86.5,82.351c0,41.099,0,82.198,0,123.298c0,9.673,15,9.673,15,0c0-41.1,0-82.199,0-123.298
			C101.5,72.678,86.5,72.678,86.5,82.351L86.5,82.351z"/>
	</g>
</g>
</svg>
