<?xml version="1.0" encoding="utf-8"?>
<!-- Generator: Adobe Illustrator 16.0.0, SVG Export Plug-In . SVG Version: 6.00 Build 0)  -->
<!DOCTYPE svg PUBLIC "-//W3C//DTD SVG 1.1//EN" "http://www.w3.org/Graphics/SVG/1.1/DTD/svg11.dtd">
<svg version="1.1" id="Layer_1" xmlns="http://www.w3.org/2000/svg" xmlns:xlink="http://www.w3.org/1999/xlink" x="0px" y="0px"
	 width="288px" height="137.676px" viewBox="0 0 288 137.676" enable-background="new 0 0 288 137.676" xml:space="preserve">
<g>
	<g>
		<path fill="#4959A8" d="M80.482,30.134c0,0,0.005-0.241,0.046-0.675c0.053-0.436,0.048-1.052,0.072-1.805
			c0.003-1.487-0.115-3.609-0.936-5.338c-0.391-0.858-0.957-1.55-1.573-1.949c-0.611-0.415-1.251-0.597-2.083-0.711
			c-0.418-0.048-0.883-0.076-1.393-0.068c-0.256,0.002-0.521,0.015-0.802,0.042c-0.134,0.001-0.28,0.022-0.424,0.038l-0.215,0.022
			l-0.108,0.011c0.335-0.021,0.082-0.004,0.152-0.008l-0.02,0.002l-0.039,0.006l-0.078,0.011l-0.313,0.042
			c-0.098,0.013-0.241,0.027-0.23,0.04c-0.056,0.029-0.079,0.035-0.164,0.061c-0.204,0.063-0.411,0.128-0.62,0.203
			c-0.413,0.166-0.836,0.363-1.247,0.621c-1.674,0.997-3.129,2.754-3.767,4.414c-0.329,0.838-0.484,1.657-0.457,2.536
			c0.018,0.217,0.031,0.441,0.078,0.661l0.014,0.084l0.007,0.042l0.003,0.021c-0.057-0.102,0.078,0.15,0.066,0.13
			c0.001,0.004,0.005,0.014,0.002,0.01c-0.029-0.023-0.002,0.07,0.001,0.113c0.023,0.114,0.057,0.239,0.094,0.364
			c0.148,0.507,0.368,1.003,0.575,1.488c0.438,0.958,0.958,1.8,1.515,2.515c0.561,0.707,1.166,1.278,1.738,1.717
			c0.572,0.427,1.096,0.759,1.472,0.943c0.387,0.195,0.593,0.299,0.593,0.299s-0.209,0.104-0.63,0.255
			c-0.418,0.123-1.066,0.336-1.935,0.38c-0.869,0.061-1.967-0.026-3.184-0.396c-1.212-0.368-2.531-1.017-3.784-1.975
			c-0.641-0.47-1.238-1.029-1.839-1.677c-0.15-0.164-0.3-0.334-0.453-0.522c-0.083-0.109-0.144-0.168-0.255-0.348l-0.014-0.019
			c-0.017-0.029,0.113,0.212,0.052,0.101l-0.027-0.038l-0.054-0.076l-0.108-0.152c-0.298-0.402-0.563-0.844-0.823-1.305
			c-1.004-1.859-1.516-4.203-1.342-6.523c0.169-2.324,0.964-4.593,2.21-6.578c1.25-1.985,2.956-3.717,5.035-4.995
			c1.041-0.633,2.168-1.165,3.368-1.529c0.602-0.179,1.212-0.333,1.837-0.434c0.329-0.056,0.725-0.1,1.084-0.139
			c0.218-0.025,0.285-0.021,0.396-0.026l0.315-0.009l0.329-0.014l0.206,0.005l0.411,0.011c0.273,0.008,0.543,0.013,0.824,0.041
			c0.551,0.042,1.11,0.117,1.669,0.215c1.12,0.21,2.248,0.536,3.332,1.03c2.18,0.956,4.115,2.72,5.183,4.703
			c1.089,1.994,1.341,4.045,1.197,5.719c-0.148,1.694-0.649,3.069-1.213,4.164c-0.57,1.096-1.206,1.921-1.771,2.543
			c-0.562,0.617-1.096,1.046-1.428,1.309C80.685,30.003,80.482,30.134,80.482,30.134z"/>
	</g>
	<g>
		<path fill="#4959A8" d="M33.639,110.387c0,0,0.183-0.317,0.524-0.911c0.335-0.585,0.911-1.435,1.494-2.525
			c0.294-0.532,0.62-1.121,0.974-1.763c0.342-0.639,0.69-1.365,1.069-2.109c0.39-0.738,0.761-1.55,1.137-2.405
			c0.194-0.42,0.393-0.852,0.596-1.294c0.182-0.452,0.369-0.914,0.559-1.387c0.193-0.466,0.39-0.941,0.591-1.426
			c0.18-0.494,0.363-0.997,0.549-1.509c0.39-1.008,0.748-2.072,1.101-3.165c0.378-1.077,0.69-2.226,1.046-3.368
			c0.317-1.16,0.641-2.345,0.971-3.55c0.588-2.436,1.195-4.938,1.691-7.531c0.506-2.583,0.987-5.226,1.369-7.893
			c0.449-2.657,0.747-5.348,1.105-7.997c0.072-0.666,0.145-1.328,0.216-1.987c0.086-0.659,0.171-1.315,0.235-1.97
			c0.138-1.312,0.274-2.608,0.409-3.883c0.248-2.57,0.488-5.055,0.715-7.411c0.219-2.382,0.426-4.633,0.617-6.712
			c0.384-4.18,0.721-7.711,0.992-10.209c0.145-1.255,0.258-2.242,0.335-2.915c0.088-0.68,0.136-1.042,0.136-1.042
			s0.163,0.33,0.433,0.959c0.258,0.631,0.671,1.555,1.091,2.754c0.438,1.196,0.916,2.663,1.399,4.362
			c0.486,1.699,0.958,3.631,1.401,5.757c0.426,2.126,0.824,4.445,1.125,6.915c0.297,2.469,0.531,5.087,0.621,7.807
			c0.076,1.36,0.07,2.745,0.064,4.148c0.012,1.404-0.052,2.826-0.125,4.259c-0.151,2.87-0.457,5.78-0.889,8.685
			c-0.223,1.45-0.518,2.896-0.788,4.335c-0.311,1.438-0.64,2.86-1.036,4.265c-0.194,0.702-0.387,1.4-0.579,2.096
			c-0.228,0.688-0.455,1.372-0.681,2.052c-0.425,1.362-0.966,2.685-1.478,3.978c-1.075,2.58-2.269,5.014-3.582,7.227
			c-0.672,1.1-1.294,2.176-2.019,3.155c-0.691,0.992-1.367,1.94-2.1,2.798c-0.356,0.431-0.705,0.853-1.045,1.266
			c-0.358,0.399-0.717,0.783-1.073,1.15c-0.709,0.733-1.356,1.438-2.06,2.024c-0.692,0.596-1.286,1.173-1.922,1.65
			c-0.638,0.478-1.213,0.91-1.744,1.281c-0.517,0.391-1,0.677-1.436,0.915c-0.429,0.245-0.793,0.454-1.089,0.624
			C33.96,110.212,33.639,110.387,33.639,110.387z"/>
	</g>
	<g>
		<path d="M142.24,123.665c-0.431,0.038-0.861-0.02-1.291-0.176c-0.352-0.078-0.733-0.235-1.145-0.47
			c-0.411-0.234-0.792-0.566-1.144-0.998c-1.174-1.682-2.074-3.462-2.7-5.34c-0.626-1.878-1.173-3.814-1.643-5.81
			c-0.274-1.212-0.509-2.425-0.704-3.639c-0.196-1.212-0.352-2.444-0.469-3.696c-0.196-1.878-0.402-3.727-0.616-5.546
			c-0.216-1.819-0.421-3.668-0.616-5.546c-0.04-0.508-0.069-1.017-0.088-1.525c-0.021-0.508-0.069-1.057-0.147-1.644
			c-0.352,0.432-0.656,0.832-0.91,1.203c-0.255,0.372-0.46,0.773-0.616,1.203c-0.704,1.878-1.517,3.707-2.435,5.487
			c-0.92,1.78-1.849,3.57-2.788,5.369c-0.431,0.744-0.802,1.496-1.115,2.26c-0.314,0.763-0.685,1.517-1.115,2.259
			c-0.313,0.549-0.646,1.066-0.998,1.556s-0.704,0.968-1.056,1.438c-0.861,1.056-1.761,2.045-2.7,2.963
			c-0.939,0.92-2.035,1.673-3.286,2.26c-1.957,1.018-4.03,1.429-6.22,1.232c-1.018-0.078-1.907-0.391-2.67-0.939
			c-0.763-0.547-1.438-1.232-2.024-2.054c-0.626-0.821-1.085-1.701-1.379-2.641c-0.293-0.938-0.499-1.916-0.616-2.935
			c-0.273-1.877-0.323-3.745-0.147-5.604c0.176-1.858,0.459-3.727,0.851-5.604c0.313-1.369,0.655-2.709,1.027-4.02
			c0.372-1.311,0.89-2.592,1.555-3.844c1.526-2.935,3.521-5.575,5.986-7.923c1.486-1.408,3.031-2.699,4.636-3.873
			c1.604-1.174,3.345-2.209,5.223-3.109c1.878-0.9,3.765-1.644,5.663-2.23c1.897-0.587,3.844-1.036,5.839-1.35
			c0.118,0,0.215-0.02,0.293-0.059c0.078-0.039,0.156-0.059,0.235-0.059c0.313-0.978,0.606-1.907,0.88-2.788
			c0.273-0.88,0.566-1.77,0.88-2.67c0.118-0.43,0.361-0.733,0.734-0.909c0.371-0.176,0.831-0.225,1.379-0.147
			c0.978,0.079,1.711,0.479,2.201,1.203c0.489,0.724,0.772,1.418,0.851,2.083c0.195,0.9,0.264,1.819,0.206,2.758
			c-0.059,0.938-0.127,1.858-0.206,2.759c-0.117,2.309-0.215,4.605-0.293,6.895c-0.079,2.289-0.021,4.588,0.176,6.896
			c0.235,2.896,0.577,5.741,1.027,8.538c0.449,2.798,0.988,5.604,1.614,8.421c0.352,1.683,0.742,3.355,1.174,5.018
			c0.43,1.663,0.859,3.315,1.291,4.959c0.234,0.938,0.498,1.858,0.792,2.758c0.293,0.9,0.596,1.819,0.909,2.758
			c0.039,0.157,0.098,0.432,0.176,0.822c0.078,0.548,0.02,0.988-0.176,1.32c-0.196,0.333-0.489,0.694-0.88,1.085
			c-0.313,0.314-0.656,0.558-1.027,0.734c-0.372,0.176-0.733,0.343-1.085,0.498C143.1,123.411,142.67,123.547,142.24,123.665z
			 M114.072,109.228h0.293c0.235-0.077,0.411-0.155,0.528-0.234c2.19-1.291,3.892-3.07,5.105-5.34
			c0.352-0.665,0.675-1.33,0.968-1.995s0.616-1.33,0.968-1.995c0.665-1.252,1.379-2.465,2.142-3.639
			c0.763-1.174,1.379-2.444,1.849-3.814c0.391-1.057,0.841-2.093,1.35-3.11c0.508-1.017,0.978-2.034,1.409-3.052
			c0.547-1.329,1.095-2.66,1.643-3.99c0.547-1.33,1.017-2.68,1.408-4.049c0.118-0.43,0.215-0.86,0.293-1.291
			c0.078-0.43,0.059-0.9-0.059-1.408c-0.431,0.078-0.832,0.186-1.203,0.322c-0.372,0.138-0.733,0.304-1.085,0.499
			c-1.409,0.704-2.788,1.448-4.137,2.229c-1.35,0.783-2.651,1.644-3.902,2.582c-1.018,0.783-1.976,1.595-2.875,2.436
			c-0.9,0.842-1.624,1.83-2.171,2.964c-0.235,0.509-0.479,1.007-0.733,1.496c-0.255,0.49-0.479,0.988-0.675,1.496
			c-0.314,0.822-0.616,1.653-0.91,2.494c-0.293,0.842-0.539,1.693-0.733,2.553c-0.196,0.744-0.333,1.497-0.411,2.26
			c-0.079,0.763-0.157,1.536-0.235,2.317c-0.157,1.291-0.225,2.583-0.205,3.874c0.019,1.291,0.146,2.582,0.381,3.873
			c0.078,0.431,0.185,0.871,0.323,1.32C113.534,108.476,113.759,108.876,114.072,109.228z"/>
		<path d="M162.191,102.421c0.234-0.782,0.47-1.574,0.704-2.377c0.234-0.801,0.449-1.594,0.646-2.377
			c0.313-1.329,0.665-2.63,1.057-3.902c0.391-1.271,0.859-2.532,1.408-3.785c0.547-1.368,1.124-2.748,1.73-4.137
			s1.242-2.768,1.907-4.137c0.587-1.213,1.203-2.406,1.849-3.58s1.301-2.327,1.966-3.463c0.548-0.938,1.095-1.857,1.644-2.758
			c0.548-0.899,1.134-1.799,1.761-2.699c0.391-0.587,0.83-1.144,1.32-1.672c0.488-0.528,0.968-1.065,1.438-1.614
			c0.273-0.313,0.537-0.596,0.792-0.851c0.254-0.254,0.519-0.537,0.792-0.851c0.509-0.625,1.193-0.939,2.055-0.939
			c0.43,0.039,0.83,0.079,1.203,0.117c0.371,0.04,0.752,0.059,1.144,0.059c0.47,0.04,0.841,0.206,1.115,0.499
			c0.273,0.293,0.528,0.597,0.763,0.91c0.313,0.391,0.558,0.802,0.733,1.232c0.177,0.431,0.323,0.88,0.44,1.35
			c0.43,1.917,0.675,3.825,0.733,5.721c0.059,1.898,0.01,3.824-0.146,5.781c-0.117,1.643-0.245,3.285-0.382,4.929
			s-0.244,3.286-0.322,4.93c-0.196,2.855-0.333,5.712-0.411,8.567c-0.078,2.856-0.059,5.713,0.059,8.567
			c0.078,1.37,0.147,2.739,0.206,4.108c0.059,1.37,0.205,2.738,0.439,4.107c0.078,0.431,0.147,0.832,0.206,1.203
			c0.059,0.372,0.126,0.754,0.205,1.145c0.078,0.313,0.127,0.616,0.146,0.909c0.02,0.294-0.088,0.597-0.322,0.91
			c0,0.039-0.011,0.059-0.029,0.059c-0.021,0-0.029,0.02-0.029,0.059c0.077,0.666-0.069,1.154-0.44,1.467
			c-0.372,0.313-0.813,0.587-1.32,0.821c-0.509,0.196-0.998,0.402-1.467,0.616c-0.47,0.216-0.979,0.421-1.526,0.616
			c-0.783,0.274-1.613,0.274-2.494,0c-0.88-0.272-1.575-0.742-2.083-1.408c-0.117-0.155-0.187-0.332-0.205-0.528
			c-0.021-0.195-0.069-0.391-0.146-0.587c-0.04-0.155-0.06-0.302-0.06-0.439c0-0.137-0.02-0.283-0.059-0.44
			c-0.821-4.264-1.173-8.606-1.056-13.027c0-0.86-0.011-1.711-0.029-2.553c-0.021-0.841,0.009-1.692,0.088-2.553
			c0.078-1.369,0.185-2.738,0.322-4.108c0.137-1.368,0.265-2.737,0.382-4.107c0.117-1.134,0.244-2.269,0.382-3.403
			c0.136-1.135,0.302-2.269,0.498-3.403c0.117-0.9,0.265-1.8,0.44-2.7c0.176-0.899,0.342-1.799,0.499-2.699
			c0.273-1.682,0.566-3.354,0.88-5.018c0.313-1.662,0.508-3.354,0.587-5.076c0.038-0.234,0.049-0.469,0.029-0.704
			c-0.021-0.235-0.029-0.508-0.029-0.821c-1.213,0.861-2.191,1.839-2.935,2.935c-0.431,0.665-0.831,1.34-1.202,2.023
			c-0.373,0.686-0.754,1.36-1.145,2.025c-0.431,0.743-0.871,1.486-1.32,2.229c-0.45,0.743-0.891,1.487-1.32,2.229
			c-0.47,0.822-0.881,1.644-1.232,2.465c-0.549,1.174-1.086,2.339-1.614,3.492c-0.528,1.154-1.066,2.318-1.613,3.491
			c-0.235,0.549-0.45,1.125-0.646,1.731c-0.196,0.607-0.392,1.203-0.587,1.79c-0.509,1.525-1.008,3.052-1.497,4.577
			s-0.968,3.052-1.438,4.577c-0.274,0.783-0.489,1.575-0.646,2.377s-0.352,1.595-0.587,2.377c-0.313,1.135-0.509,2.298-0.587,3.491
			s-0.215,2.377-0.41,3.551c-0.079,0.548-0.187,1.096-0.323,1.643c-0.138,0.549-0.244,1.096-0.322,1.644
			c-0.079,0.509-0.138,1.008-0.177,1.496c-0.039,0.489-0.137,0.969-0.293,1.438c-0.196,0.783-0.47,1.487-0.821,2.113
			c-0.157,0.313-0.323,0.548-0.499,0.704s-0.44,0.332-0.792,0.527c-0.274,0.118-0.558,0.187-0.852,0.206
			c-0.293,0.02-0.597,0.029-0.909,0.029c-0.313,0-0.597-0.01-0.851-0.029c-0.255-0.02-0.479-0.146-0.675-0.382
			c-0.861-0.899-1.507-1.878-1.937-2.934c-0.627-1.564-1.096-3.14-1.409-4.725c-0.313-1.584-0.567-3.198-0.763-4.841
			c-0.196-1.878-0.41-3.756-0.646-5.634c-0.234-1.878-0.41-3.756-0.528-5.634c-0.117-2.229-0.186-4.469-0.205-6.719
			c-0.021-2.25-0.029-4.509-0.029-6.778c0-1.76,0.049-3.521,0.146-5.281c0.098-1.761,0.186-3.541,0.265-5.34
			c0.117-2.23,0.293-4.538,0.527-6.925c0.078-0.665,0.215-1.329,0.411-1.995c0.195-0.665,0.508-1.291,0.939-1.878
			c0.43-0.625,0.958-0.958,1.584-0.998c0.548-0.078,1.057-0.059,1.525,0.059c0.47,0.118,0.881,0.45,1.232,0.998
			c0.353,0.548,0.636,1.085,0.852,1.614c0.214,0.528,0.361,1.125,0.439,1.79c0.078,0.783,0.177,1.536,0.294,2.26
			c0.117,0.725,0.234,1.477,0.352,2.259c0.195,1.096,0.343,2.171,0.44,3.228s0.166,2.152,0.205,3.287
			c0.078,1.643,0.166,3.266,0.265,4.87c0.097,1.604,0.185,3.228,0.264,4.87c0.078,1.761,0.156,3.513,0.235,5.253
			c0.077,1.741,0.155,3.491,0.234,5.252c0.038,0.548,0.078,1.086,0.117,1.613c0.039,0.528,0.098,1.066,0.176,1.614H162.191z"/>
		<path d="M196.109,98.373c0.938,0.86,1.79,1.741,2.553,2.641c0.763,0.9,1.262,1.995,1.496,3.286
			c0.195,1.135,0.449,2.24,0.764,3.315c0.313,1.076,0.801,2.104,1.467,3.081c0.43,0.587,0.88,1.105,1.35,1.555
			c0.47,0.45,0.978,0.891,1.525,1.32c0.47,0.353,0.978,0.578,1.526,0.675c0.547,0.099,1.095,0.128,1.643,0.088
			c0.47-0.077,0.86-0.234,1.174-0.469c0.47-0.431,0.899-0.899,1.291-1.408c0.391-0.509,0.685-1.096,0.88-1.761
			c0.548-1.839,0.86-3.677,0.939-5.517c0.078-1.838-0.157-3.697-0.704-5.575c-0.313-1.173-0.744-2.278-1.291-3.315
			c-0.549-1.036-1.154-2.044-1.819-3.021c-0.783-1.095-1.555-2.172-2.318-3.228c-0.763-1.057-1.477-2.151-2.142-3.286
			c-0.821-1.369-1.575-2.759-2.26-4.167s-1.223-2.895-1.613-4.46c-0.274-1.174-0.372-2.367-0.293-3.58
			c0.077-1.212,0.322-2.396,0.733-3.55c0.41-1.153,0.978-2.22,1.701-3.198c0.724-0.978,1.594-1.819,2.611-2.523
			c0.313-0.195,0.626-0.391,0.939-0.587c0.313-0.195,0.625-0.391,0.938-0.587c0.899-0.547,1.868-0.889,2.905-1.027
			c1.036-0.137,2.054-0.097,3.052,0.117c0.997,0.216,1.945,0.558,2.846,1.027c0.899,0.469,1.682,1.018,2.348,1.643
			c1.369,1.331,2.641,2.817,3.814,4.46c0.43,0.587,0.792,1.203,1.085,1.848c0.294,0.646,0.597,1.302,0.91,1.967
			c0.195,0.431,0.371,0.842,0.528,1.232c0.155,0.391,0.331,0.803,0.527,1.232c0.235,0.548,0.156,1.076-0.234,1.584
			c-0.117,0.196-0.255,0.352-0.411,0.47c-0.156,0.117-0.372,0.138-0.646,0.059c-0.548-0.038-0.842-0.332-0.88-0.88
			c-0.079-0.353-0.146-0.705-0.205-1.057s-0.147-0.684-0.265-0.998c-0.509-1.252-1.154-2.406-1.937-3.462
			c-0.783-1.056-1.741-1.956-2.875-2.7c-0.47-0.313-0.998-0.557-1.585-0.733c-0.587-0.176-1.154-0.342-1.701-0.499
			c-0.353-0.078-0.704-0.068-1.057,0.029c-0.353,0.098-0.666,0.303-0.938,0.616c-0.744,0.861-1.351,1.771-1.819,2.729
			c-0.47,0.959-0.744,2.006-0.822,3.14c-0.039,0.548,0.02,1.077,0.177,1.585c0.155,0.508,0.352,0.979,0.587,1.408
			c0.782,1.564,1.633,3.061,2.553,4.488c0.918,1.43,1.867,2.847,2.846,4.256c0.782,1.056,1.525,2.132,2.23,3.227
			c0.704,1.096,1.368,2.23,1.995,3.404c1.682,3.13,2.62,6.475,2.816,10.034c0.078,1.878,0.029,3.707-0.146,5.487
			s-0.538,3.55-1.086,5.311c-0.548,2.074-1.418,3.864-2.611,5.369c-1.193,1.507-2.808,2.69-4.842,3.551
			c-0.86,0.353-1.722,0.548-2.582,0.587s-1.741,0.021-2.641-0.059c-2.778-0.235-5.281-1.115-7.511-2.641
			c-0.861-0.626-1.653-1.311-2.377-2.055c-0.725-0.742-1.419-1.505-2.083-2.288c-1.604-2.073-2.72-4.381-3.346-6.925
			c-0.273-1.057-0.36-2.103-0.264-3.14c0.098-1.036,0.303-2.063,0.616-3.081c0.273-0.859,0.587-1.691,0.938-2.493
			C195.464,100.124,195.796,99.273,196.109,98.373z"/>
		<path d="M262.245,71.789c0.234,1.604,0.42,3.189,0.558,4.754c0.137,1.564,0.185,3.168,0.146,4.812
			c0,0.353-0.021,0.704-0.059,1.056c-0.04,0.353-0.099,0.686-0.176,0.998l-0.353,3.346c-0.431,0.195-0.773,0.264-1.027,0.205
			c-0.255-0.059-0.519-0.283-0.792-0.676c-1.096-1.368-1.722-2.854-1.878-4.459c-0.156-1.135-0.264-2.289-0.322-3.463
			s-0.167-2.326-0.323-3.462c-0.117-0.821-0.284-1.652-0.499-2.494c-0.215-0.841-0.421-1.673-0.616-2.494
			c-0.078-0.273-0.186-0.537-0.322-0.792c-0.138-0.254-0.284-0.538-0.44-0.851c-0.392,0.313-0.772,0.597-1.145,0.851
			c-0.372,0.255-0.714,0.538-1.026,0.852c-1.37,1.33-2.661,2.729-3.873,4.195c-1.213,1.467-2.328,3.021-3.345,4.665
			c-0.939,1.526-1.752,3.11-2.436,4.753c-0.686,1.644-1.242,3.346-1.673,5.105c-0.079,0.196-0.117,0.421-0.117,0.676
			s0,0.498,0,0.733c0.117,1.018,0.244,2.024,0.382,3.021c0.137,0.998,0.302,2.006,0.498,3.022c0.273,1.253,0.479,2.523,0.616,3.814
			s0.303,2.582,0.499,3.873c0.078,0.392,0.146,0.763,0.205,1.115c0.06,0.352,0.127,0.704,0.206,1.056
			c0.078,0.822,0.166,1.644,0.264,2.465c0.098,0.822,0.186,1.624,0.265,2.406c0.117,0.783,0.234,1.585,0.352,2.406
			s0.235,1.624,0.353,2.406c0.078,0.352,0.155,0.704,0.234,1.056c0.078,0.353,0.156,0.704,0.234,1.057
			c0.078,0.274,0.098,0.548,0.06,0.821c-0.04,0.274-0.079,0.549-0.118,0.821c-0.039,0.51-0.107,1.008-0.205,1.497
			s-0.304,0.93-0.616,1.32l-0.352,0.352c-0.314,0.274-0.725,0.411-1.232,0.411c-0.392,0.196-0.92,0.372-1.585,0.528
			c-0.666,0.155-1.341,0.234-2.024,0.234c-0.685,0-1.312-0.108-1.878-0.322c-0.567-0.215-0.949-0.597-1.145-1.145
			c-0.509-1.604-1.008-3.639-1.496-6.104c-0.489-2.464-0.969-5.173-1.438-8.127c-0.47-2.954-0.92-6.045-1.35-9.272
			c-0.432-3.228-0.832-6.415-1.203-9.565c-0.373-3.148-0.704-6.151-0.998-9.007c-0.293-2.855-0.548-5.379-0.763-7.57
			c-0.216-2.191-0.372-3.952-0.47-5.282c-0.098-1.33-0.146-2.034-0.146-2.113c0.038-0.117,0.215-0.254,0.528-0.411
			c0.313-0.156,0.675-0.293,1.086-0.411c0.41-0.117,0.83-0.225,1.261-0.323c0.431-0.097,0.764-0.185,0.998-0.264
			c0.038-0.039,0.117-0.059,0.234-0.059c0.039,0,0.059-0.019,0.059-0.059v0.059c0.235-0.078,0.46-0.117,0.676-0.117
			c0.214,0,0.42,0,0.616,0c0.43,0,0.723,0.138,0.88,0.411c0.155,0.274,0.352,0.587,0.587,0.939c0.782,1.252,1.428,2.592,1.937,4.02
			c0.508,1.428,0.958,2.885,1.35,4.371c0.273,1.019,0.499,2.035,0.675,3.053s0.361,2.034,0.558,3.051
			c0,0.079,0.009,0.146,0.029,0.205c0.02,0.059,0.049,0.187,0.088,0.382c0.156-0.313,0.293-0.587,0.411-0.821
			c0.117-0.234,0.214-0.449,0.293-0.646c0.743-1.8,1.74-3.54,2.993-5.224c1.017-1.329,2.054-2.641,3.11-3.931
			c1.056-1.291,2.249-2.465,3.579-3.521c0.273-0.235,0.558-0.459,0.852-0.675c0.293-0.214,0.596-0.459,0.909-0.733
			c0.704-0.547,1.457-0.89,2.259-1.027c0.802-0.137,1.634-0.166,2.494-0.088c0.353,0.04,0.646,0.176,0.881,0.411
			c0.234,0.234,0.449,0.489,0.646,0.763c0.859,1.056,1.457,2.191,1.79,3.404C261.784,69.246,262.049,70.498,262.245,71.789z"/>
	</g>
	<g>
		<path d="M18.921,82.927c0,0,0.257-0.098,0.738-0.28c0.49-0.173,1.186-0.458,2.022-0.844c0.841-0.393,1.879-0.88,3.027-1.498
			c1.157-0.599,2.424-1.356,3.793-2.187c1.369-0.832,2.819-1.791,4.323-2.841c1.492-1.073,3.074-2.175,4.643-3.417
			c1.583-1.217,3.163-2.544,4.773-3.871c1.602-1.339,3.184-2.749,4.729-4.188c1.534-1.451,2.99-2.983,4.334-4.557
			c1.359-1.561,2.635-3.119,3.974-4.502c1.322-1.395,2.689-2.649,3.989-3.831c1.305-1.185,2.539-2.304,3.677-3.338
			c1.145-1.054,2.194-2.021,3.125-2.877c0.939-0.875,1.754-1.664,2.438-2.338c0.325-0.342,0.651-0.644,0.928-0.916
			c0.26-0.275,0.47-0.52,0.668-0.712c0.375-0.394,0.601-0.609,0.601-0.609l0.962,0.273c0,0,0.056,0.302,0.112,0.879
			c0.08,0.587,0.099,1.429,0.035,2.51c-0.078,1.071-0.259,2.377-0.646,3.803c-0.368,1.441-0.926,3.004-1.675,4.636
			c-0.367,0.817-0.812,1.626-1.263,2.477c-0.499,0.802-0.972,1.688-1.559,2.496c-1.104,1.691-2.442,3.318-3.964,4.854
			c-1.542,1.511-3.299,2.893-5.152,4.176c-1.839,1.303-3.735,2.558-5.599,3.835c-1.871,1.268-3.764,2.488-5.662,3.63
			c-1.888,1.155-3.81,2.188-5.688,3.142c-1.873,0.962-3.716,1.83-5.489,2.59c-1.78,0.751-3.478,1.416-5.068,1.971
			c-1.588,0.559-3.07,0.998-4.396,1.341c-1.32,0.361-2.484,0.598-3.464,0.767c-0.987,0.174-1.738,0.273-2.248,0.315
			c-0.512,0.056-0.785,0.085-0.785,0.085L18.921,82.927z"/>
	</g>
	<g>
		<path fill="#4959A8" d="M84.891,47.228c0,0,0.315,0.333,0.869,0.973c0.289,0.312,0.616,0.708,0.97,1.251
			c0.346,0.523,0.833,1.154,1.204,1.858c0.818,1.407,1.729,3.188,2.495,5.319c0.82,2.126,1.483,4.594,2.016,7.336
			c0.492,2.74,0.826,5.755,0.851,8.952c0.015,3.193-0.186,6.586-0.907,10.012c-0.72,3.421-1.807,6.892-3.314,10.246
			c-1.485,3.357-3.157,6.683-5.132,9.827l-0.716,1.189l-0.784,1.148c-0.529,0.76-1.032,1.534-1.582,2.273
			c-1.143,1.451-2.229,2.926-3.479,4.253c-2.367,2.761-5.089,5.104-7.777,7.226c-0.695,0.502-1.384,1-2.067,1.493
			c-0.342,0.243-0.682,0.485-1.021,0.727c-0.354,0.219-0.705,0.437-1.055,0.653c-0.697,0.432-1.387,0.858-2.069,1.279
			c-0.675,0.428-1.404,0.748-2.087,1.118c-0.69,0.355-1.371,0.705-2.042,1.051c-0.682,0.318-1.371,0.597-2.037,0.888
			c-0.667,0.286-1.324,0.566-1.968,0.843c-0.647,0.265-1.306,0.467-1.936,0.695c-2.511,0.952-4.905,1.504-6.986,2.067
			c-2.114,0.451-3.957,0.807-5.476,1.054c-3.052,0.372-4.795,0.586-4.795,0.586l-0.17-0.986c0,0,1.66-0.48,4.563-1.323
			c1.427-0.486,3.15-1.101,5.102-1.815c1.917-0.826,4.087-1.701,6.327-2.905c0.563-0.293,1.151-0.56,1.722-0.889
			c0.565-0.337,1.14-0.68,1.726-1.029c0.582-0.352,1.182-0.69,1.771-1.067c0.573-0.399,1.156-0.806,1.746-1.217
			c2.373-1.615,4.68-3.562,6.924-5.681c2.182-2.189,4.309-4.554,6.174-7.172c0.986-1.266,1.809-2.667,2.687-4.023
			c0.418-0.693,0.79-1.419,1.187-2.125l0.587-1.063l0.521-1.104c1.452-2.903,2.482-6.007,3.304-9.079
			c0.839-3.073,1.35-6.163,1.923-9.117c0.587-2.959,1.004-5.848,1.444-8.604c0.158-1.383,0.383-2.731,0.478-4.044
			c0.186-1.315,0.217-2.583,0.351-3.817c0.131-2.45,0.266-4.737,0.24-6.761c0.018-2.037-0.069-3.818-0.164-5.308
			c-0.108-1.474-0.186-2.606-0.345-3.474c-0.13-0.837-0.178-1.293-0.178-1.293L84.891,47.228z"/>
	</g>
</g>
</svg>
