<?xml version="1.0" standalone="yes"?>

<svg version="1.1" viewBox="0.0 0.0 369.53805774278214 205.5275590551181" fill="none" stroke="none" stroke-linecap="square" stroke-miterlimit="10" xmlns="http://www.w3.org/2000/svg" xmlns:xlink="http://www.w3.org/1999/xlink"><clipPath id="p.0"><path d="m0 0l369.53806 0l0 205.52756l-369.53806 0l0 -205.52756z" clip-rule="nonzero"></path></clipPath><g clip-path="url(#p.0)"><path fill="#000000" fill-opacity="0.0" d="m0 0l369.53806 0l0 205.52756l-369.53806 0z" fill-rule="evenodd"></path><path fill="#efefef" d="m0 0l368.8189 0l0 204.7559l-368.8189 0z" fill-rule="evenodd"></path><path stroke="#000000" stroke-width="1.0" stroke-linejoin="round" stroke-linecap="butt" d="m0 0l368.8189 0l0 204.7559l-368.8189 0z" fill-rule="evenodd"></path><path fill="#000000" d="m39.992126 50.70341l0 0c0 -4.1138687 3.4900627 -7.448818 7.7952766 -7.448818l0 0c2.0674324 0 4.050194 0.7847824 5.5120926 2.1817093c1.461895 1.3969231 2.2831802 3.2915611 2.2831802 5.267109l0 0c0 4.1138687 -3.4900627 7.448818 -7.795273 7.448818l0 0c-4.305214 0 -7.7952766 -3.3349495 -7.7952766 -7.448818z" fill-rule="evenodd"></path><path stroke="#000000" stroke-width="1.0" stroke-linejoin="round" stroke-linecap="butt" d="m39.992126 50.70341l0 0c0 -4.1138687 3.4900627 -7.448818 7.7952766 -7.448818l0 0c2.0674324 0 4.050194 0.7847824 5.5120926 2.1817093c1.461895 1.3969231 2.2831802 3.2915611 2.2831802 5.267109l0 0c0 4.1138687 -3.4900627 7.448818 -7.795273 7.448818l0 0c-4.305214 0 -7.7952766 -3.3349495 -7.7952766 -7.448818z" fill-rule="evenodd"></path><path fill="#000000" d="m143.55643 50.702255l0 0c0 -4.1138687 3.4900665 -7.448818 7.795273 -7.448818l0 0c2.0674438 0 4.0502014 0.7847824 5.5121 2.1817093c1.4618988 1.3969231 2.2831879 3.2915573 2.2831879 5.267109l0 0c0 4.1138687 -3.4900665 7.448818 -7.795288 7.448818l0 0c-4.3052063 0 -7.795273 -3.3349495 -7.795273 -7.448818z" fill-rule="evenodd"></path><path stroke="#000000" stroke-width="1.0" stroke-linejoin="round" stroke-linecap="butt" d="m143.55643 50.702255l0 0c0 -4.1138687 3.4900665 -7.448818 7.795273 -7.448818l0 0c2.0674438 0 4.0502014 0.7847824 5.5121 2.1817093c1.4618988 1.3969231 2.2831879 3.2915573 2.2831879 5.267109l0 0c0 4.1138687 -3.4900665 7.448818 -7.795288 7.448818l0 0c-4.3052063 0 -7.795273 -3.3349495 -7.795273 -7.448818z" fill-rule="evenodd"></path><path fill="#000000" d="m225.71129 50.704033l0 0c0 -4.1138687 3.4900665 -7.448818 7.795273 -7.448818l0 0c2.0674286 0 4.0502014 0.7847824 5.5121 2.1817093c1.4618835 1.3969231 2.2831726 3.2915611 2.2831726 5.267109l0 0c0 4.1138687 -3.4900665 7.448818 -7.795273 7.448818l0 0c-4.3052063 0 -7.795273 -3.3349495 -7.795273 -7.448818z" fill-rule="evenodd"></path><path stroke="#000000" stroke-width="1.0" stroke-linejoin="round" stroke-linecap="butt" d="m225.71129 50.704033l0 0c0 -4.1138687 3.4900665 -7.448818 7.795273 -7.448818l0 0c2.0674286 0 4.0502014 0.7847824 5.5121 2.1817093c1.4618835 1.3969231 2.2831726 3.2915611 2.2831726 5.267109l0 0c0 4.1138687 -3.4900665 7.448818 -7.795273 7.448818l0 0c-4.3052063 0 -7.795273 -3.3349495 -7.795273 -7.448818z" fill-rule="evenodd"></path><path fill="#000000" d="m318.7139 50.704033l0 0c0 -4.1138687 3.4900818 -7.448818 7.795288 -7.448818l0 0c2.0674438 0 4.0502014 0.7847824 5.512085 2.1817093c1.4619141 1.3969231 2.2832031 3.2915611 2.2832031 5.267109l0 0c0 4.1138687 -3.4900818 7.448818 -7.795288 7.448818l0 0c-4.3052063 0 -7.795288 -3.3349495 -7.795288 -7.448818z" fill-rule="evenodd"></path><path stroke="#000000" stroke-width="1.0" stroke-linejoin="round" stroke-linecap="butt" d="m318.7139 50.704033l0 0c0 -4.1138687 3.4900818 -7.448818 7.795288 -7.448818l0 0c2.0674438 0 4.0502014 0.7847824 5.512085 2.1817093c1.4619141 1.3969231 2.2832031 3.2915611 2.2832031 5.267109l0 0c0 4.1138687 -3.4900818 7.448818 -7.795288 7.448818l0 0c-4.3052063 0 -7.795288 -3.3349495 -7.795288 -7.448818z" fill-rule="evenodd"></path><path fill="#000000" d="m274.91513 84.61729l0 0c0 -4.1138687 3.4900513 -7.448822 7.7952576 -7.448822l0 0c2.0674438 0 4.0502014 0.7847824 5.5121155 2.1817093c1.4618835 1.3969269 2.2831726 3.291565 2.2831726 5.2671127l0 0c0 4.1138687 -3.4900818 7.4488144 -7.795288 7.4488144l0 0c-4.3052063 0 -7.7952576 -3.3349457 -7.7952576 -7.4488144z" fill-rule="evenodd"></path><path stroke="#000000" stroke-width="1.0" stroke-linejoin="round" stroke-linecap="butt" d="m274.91513 84.61729l0 0c0 -4.1138687 3.4900513 -7.448822 7.7952576 -7.448822l0 0c2.0674438 0 4.0502014 0.7847824 5.5121155 2.1817093c1.4618835 1.3969269 2.2831726 3.291565 2.2831726 5.2671127l0 0c0 4.1138687 -3.4900818 7.4488144 -7.795288 7.4488144l0 0c-4.3052063 0 -7.7952576 -3.3349457 -7.7952576 -7.4488144z" fill-rule="evenodd"></path><path fill="#000000" d="m89.01779 84.61729l0 0c0 -4.1138687 3.4900665 -7.448822 7.7952805 -7.448822l0 0c2.0674362 0 4.050194 0.7847824 5.5120926 2.1817093c1.4618988 1.3969269 2.2831802 3.291565 2.2831802 5.2671127l0 0c0 4.1138687 -3.4900665 7.4488144 -7.795273 7.4488144l0 0c-4.305214 0 -7.7952805 -3.3349457 -7.7952805 -7.4488144z" fill-rule="evenodd"></path><path stroke="#000000" stroke-width="1.0" stroke-linejoin="round" stroke-linecap="butt" d="m89.01779 84.61729l0 0c0 -4.1138687 3.4900665 -7.448822 7.7952805 -7.448822l0 0c2.0674362 0 4.050194 0.7847824 5.5120926 2.1817093c1.4618988 1.3969269 2.2831802 3.291565 2.2831802 5.2671127l0 0c0 4.1138687 -3.4900665 7.4488144 -7.795273 7.4488144l0 0c-4.305214 0 -7.7952805 -3.3349457 -7.7952805 -7.4488144z" fill-rule="evenodd"></path><path fill="#000000" d="m61.013123 133.42844l0 0c0 -4.113861 3.4900665 -7.4488144 7.795273 -7.4488144l0 0c2.0674362 0 4.0502014 0.78479004 5.5120926 2.1817093c1.4618988 1.3969269 2.2831879 3.291565 2.2831879 5.267105l0 0c0 4.1138763 -3.4900665 7.448822 -7.7952805 7.448822l0 0c-4.3052063 0 -7.795273 -3.3349457 -7.795273 -7.448822z" fill-rule="evenodd"></path><path stroke="#000000" stroke-width="1.0" stroke-linejoin="round" stroke-linecap="butt" d="m61.013123 133.42844l0 0c0 -4.113861 3.4900665 -7.4488144 7.795273 -7.4488144l0 0c2.0674362 0 4.0502014 0.78479004 5.5120926 2.1817093c1.4618988 1.3969269 2.2831879 3.291565 2.2831879 5.267105l0 0c0 4.1138763 -3.4900665 7.448822 -7.7952805 7.448822l0 0c-4.3052063 0 -7.795273 -3.3349457 -7.795273 -7.448822z" fill-rule="evenodd"></path><path fill="#000000" d="m296.67453 133.42844l0 0c0 -4.113861 3.4900818 -7.4488144 7.795288 -7.4488144l0 0c2.0674438 0 4.0502014 0.78479004 5.512085 2.1817093c1.4619141 1.3969269 2.2832031 3.291565 2.2832031 5.267105l0 0c0 4.1138763 -3.4900818 7.448822 -7.795288 7.448822l0 0c-4.3052063 0 -7.795288 -3.3349457 -7.795288 -7.448822z" fill-rule="evenodd"></path><path stroke="#000000" stroke-width="1.0" stroke-linejoin="round" stroke-linecap="butt" d="m296.67453 133.42844l0 0c0 -4.113861 3.4900818 -7.4488144 7.795288 -7.4488144l0 0c2.0674438 0 4.0502014 0.78479004 5.512085 2.1817093c1.4619141 1.3969269 2.2832031 3.291565 2.2832031 5.267105l0 0c0 4.1138763 -3.4900818 7.448822 -7.795288 7.448822l0 0c-4.3052063 0 -7.795288 -3.3349457 -7.795288 -7.448822z" fill-rule="evenodd"></path><path fill="#000000" d="m127.96588 107.68335l0 0c0 -4.1138687 3.4900665 -7.448822 7.795273 -7.448822l0 0c2.0674438 0 4.0502014 0.7847824 5.5121 2.1817093c1.4618835 1.3969269 2.2831726 3.2915573 2.2831726 5.2671127l0 0c0 4.1138687 -3.4900665 7.4488144 -7.795273 7.4488144l0 0c-4.3052063 0 -7.795273 -3.3349457 -7.795273 -7.4488144z" fill-rule="evenodd"></path><path stroke="#000000" stroke-width="1.0" stroke-linejoin="round" stroke-linecap="butt" d="m127.96588 107.68335l0 0c0 -4.1138687 3.4900665 -7.448822 7.795273 -7.448822l0 0c2.0674438 0 4.0502014 0.7847824 5.5121 2.1817093c1.4618835 1.3969269 2.2831726 3.2915573 2.2831726 5.2671127l0 0c0 4.1138687 -3.4900665 7.4488144 -7.795273 7.4488144l0 0c-4.3052063 0 -7.795273 -3.3349457 -7.795273 -7.4488144z" fill-rule="evenodd"></path><path fill="#000000" d="m160.23871 141.58165l0 0c0 -4.113861 3.4900665 -7.448822 7.795273 -7.448822l0 0c2.0674438 0 4.0502014 0.78479004 5.5121 2.181717c1.4618988 1.3969269 2.2831879 3.291565 2.2831879 5.267105l0 0c0 4.1138763 -3.4900665 7.448822 -7.795288 7.448822l0 0c-4.3052063 0 -7.795273 -3.3349457 -7.795273 -7.448822z" fill-rule="evenodd"></path><path stroke="#000000" stroke-width="1.0" stroke-linejoin="round" stroke-linecap="butt" d="m160.23871 141.58165l0 0c0 -4.113861 3.4900665 -7.448822 7.795273 -7.448822l0 0c2.0674438 0 4.0502014 0.78479004 5.5121 2.181717c1.4618988 1.3969269 2.2831879 3.291565 2.2831879 5.267105l0 0c0 4.1138763 -3.4900665 7.448822 -7.795288 7.448822l0 0c-4.3052063 0 -7.795273 -3.3349457 -7.795273 -7.448822z" fill-rule="evenodd"></path><path fill="#000000" d="m201.99898 142.93759l0 0c0 -4.1138763 3.4900665 -7.448822 7.795273 -7.448822l0 0c2.0674438 0 4.0502014 0.7847748 5.5121 2.1817017c1.4618988 1.3969269 2.2831726 3.291565 2.2831726 5.2671204l0 0c0 4.113861 -3.4900665 7.448807 -7.795273 7.448807l0 0c-4.3052063 0 -7.795273 -3.3349457 -7.795273 -7.448807z" fill-rule="evenodd"></path><path stroke="#000000" stroke-width="1.0" stroke-linejoin="round" stroke-linecap="butt" d="m201.99898 142.93759l0 0c0 -4.1138763 3.4900665 -7.448822 7.795273 -7.448822l0 0c2.0674438 0 4.0502014 0.7847748 5.5121 2.1817017c1.4618988 1.3969269 2.2831726 3.291565 2.2831726 5.2671204l0 0c0 4.113861 -3.4900665 7.448807 -7.795273 7.448807l0 0c-4.3052063 0 -7.795273 -3.3349457 -7.795273 -7.448807z" fill-rule="evenodd"></path><path fill="#000000" d="m241.697 118.53081l0 0c0 -4.1138687 3.4900665 -7.448822 7.795273 -7.448822l0 0c2.0674438 0 4.0502014 0.7847824 5.5121 2.1817093c1.4618988 1.3969269 2.2831879 3.2915573 2.2831879 5.2671127l0 0c0 4.1138687 -3.4900665 7.4488144 -7.795288 7.4488144l0 0c-4.3052063 0 -7.795273 -3.3349457 -7.795273 -7.4488144z" fill-rule="evenodd"></path><path stroke="#000000" stroke-width="1.0" stroke-linejoin="round" stroke-linecap="butt" d="m241.697 118.53081l0 0c0 -4.1138687 3.4900665 -7.448822 7.795273 -7.448822l0 0c2.0674438 0 4.0502014 0.7847824 5.5121 2.1817093c1.4618988 1.3969269 2.2831879 3.2915573 2.2831879 5.2671127l0 0c0 4.1138687 -3.4900665 7.4488144 -7.795288 7.4488144l0 0c-4.3052063 0 -7.795273 -3.3349457 -7.795273 -7.4488144z" fill-rule="evenodd"></path></g></svg>

