<?xml version="1.0" standalone="yes"?>

<svg version="1.1" viewBox="0.0 0.0 370.18110236220474 201.6535433070866" fill="none" stroke="none" stroke-linecap="square" stroke-miterlimit="10" xmlns="http://www.w3.org/2000/svg" xmlns:xlink="http://www.w3.org/1999/xlink"><clipPath id="p.0"><path d="m0 0l370.1811 0l0 201.65355l-370.1811 0l0 -201.65355z" clip-rule="nonzero"></path></clipPath><g clip-path="url(#p.0)"><path fill="#000000" fill-opacity="0.0" d="m0 0l370.1811 0l0 201.65355l-370.1811 0z" fill-rule="evenodd"></path><path fill="#efefef" d="m0 0l368.8189 0l0 204.7559l-368.8189 0z" fill-rule="evenodd"></path><path stroke="#000000" stroke-width="1.0" stroke-linejoin="round" stroke-linecap="butt" d="m0 0l368.8189 0l0 204.7559l-368.8189 0z" fill-rule="evenodd"></path><path fill="#000000" d="m232.881 117.27608l0 0c0 -4.1138687 3.4900665 -7.4488144 7.795273 -7.4488144l0 0c2.0674438 0 4.0502014 0.7847824 5.5121 2.1817017c1.4618988 1.3969269 2.2831879 3.291565 2.2831879 5.2671127l0 0c0 4.1138687 -3.4900665 7.448822 -7.795288 7.448822l0 0c-4.3052063 0 -7.795273 -3.3349533 -7.795273 -7.448822z" fill-rule="evenodd"></path><path stroke="#000000" stroke-width="1.0" stroke-linejoin="round" stroke-linecap="butt" d="m232.881 117.27608l0 0c0 -4.1138687 3.4900665 -7.4488144 7.795273 -7.4488144l0 0c2.0674438 0 4.0502014 0.7847824 5.5121 2.1817017c1.4618988 1.3969269 2.2831879 3.291565 2.2831879 5.2671127l0 0c0 4.1138687 -3.4900665 7.448822 -7.795288 7.448822l0 0c-4.3052063 0 -7.795273 -3.3349533 -7.795273 -7.448822z" fill-rule="evenodd"></path><path fill="#000000" d="m126.98496 117.27461l0 0c0 -4.1138687 3.490059 -7.448822 7.7952805 -7.448822l0 0c2.0674286 0 4.050186 0.7847824 5.512085 2.1817093c1.4618988 1.3969269 2.2831879 3.291565 2.2831879 5.2671127l0 0c0 4.1138687 -3.4900665 7.4488144 -7.795273 7.4488144l0 0c-4.3052216 0 -7.7952805 -3.3349457 -7.7952805 -7.4488144z" fill-rule="evenodd"></path><path stroke="#000000" stroke-width="1.0" stroke-linejoin="round" stroke-linecap="butt" d="m126.98496 117.27461l0 0c0 -4.1138687 3.490059 -7.448822 7.7952805 -7.448822l0 0c2.0674286 0 4.050186 0.7847824 5.512085 2.1817093c1.4618988 1.3969269 2.2831879 3.291565 2.2831879 5.2671127l0 0c0 4.1138687 -3.4900665 7.4488144 -7.795273 7.4488144l0 0c-4.3052216 0 -7.7952805 -3.3349457 -7.7952805 -7.4488144z" fill-rule="evenodd"></path><path fill="#000000" d="m56.945328 136.15797l0 0c0 -4.1138763 3.4900627 -7.448822 7.795273 -7.448822l0 0c2.0674362 0 4.050194 0.7847748 5.5120926 2.1817017c1.4618988 1.3969269 2.2831879 3.291565 2.2831879 5.2671204l0 0c0 4.113861 -3.4900665 7.448807 -7.7952805 7.448807l0 0c-4.30521 0 -7.795273 -3.3349457 -7.795273 -7.448807z" fill-rule="evenodd"></path><path stroke="#000000" stroke-width="1.0" stroke-linejoin="round" stroke-linecap="butt" d="m56.945328 136.15797l0 0c0 -4.1138763 3.4900627 -7.448822 7.795273 -7.448822l0 0c2.0674362 0 4.050194 0.7847748 5.5120926 2.1817017c1.4618988 1.3969269 2.2831879 3.291565 2.2831879 5.2671204l0 0c0 4.113861 -3.4900665 7.448807 -7.7952805 7.448807l0 0c-4.30521 0 -7.795273 -3.3349457 -7.795273 -7.448807z" fill-rule="evenodd"></path><path fill="#000000" d="m308.2397 132.09016l0 0c0 -4.113861 3.4900818 -7.4488144 7.795288 -7.4488144l0 0c2.0674438 0 4.0502014 0.78479004 5.512085 2.1817093c1.4619141 1.3969269 2.2831726 3.291565 2.2831726 5.267105l0 0c0 4.1138763 -3.4900513 7.448822 -7.7952576 7.448822l0 0c-4.3052063 0 -7.795288 -3.3349457 -7.795288 -7.448822z" fill-rule="evenodd"></path><path stroke="#000000" stroke-width="1.0" stroke-linejoin="round" stroke-linecap="butt" d="m308.2397 132.09016l0 0c0 -4.113861 3.4900818 -7.4488144 7.795288 -7.4488144l0 0c2.0674438 0 4.0502014 0.78479004 5.512085 2.1817093c1.4619141 1.3969269 2.2831726 3.291565 2.2831726 5.267105l0 0c0 4.1138763 -3.4900513 7.448822 -7.7952576 7.448822l0 0c-4.3052063 0 -7.795288 -3.3349457 -7.795288 -7.448822z" fill-rule="evenodd"></path><path fill="#000000" d="m99.63023 142.93954l0 0c0 -4.1138763 3.490059 -7.448822 7.795273 -7.448822l0 0c2.0674362 0 4.050194 0.78479004 5.5120926 2.1817017c1.4618988 1.3969269 2.2831802 3.291565 2.2831802 5.2671204l0 0c0 4.113861 -3.490059 7.448822 -7.795273 7.448822l0 0c-4.305214 0 -7.795273 -3.334961 -7.795273 -7.448822z" fill-rule="evenodd"></path><path stroke="#000000" stroke-width="1.0" stroke-linejoin="round" stroke-linecap="butt" d="m99.63023 142.93954l0 0c0 -4.1138763 3.490059 -7.448822 7.795273 -7.448822l0 0c2.0674362 0 4.050194 0.78479004 5.5120926 2.1817017c1.4618988 1.3969269 2.2831802 3.291565 2.2831802 5.2671204l0 0c0 4.113861 -3.490059 7.448822 -7.795273 7.448822l0 0c-4.305214 0 -7.795273 -3.334961 -7.795273 -7.448822z" fill-rule="evenodd"></path><path fill="#000000" d="m162.95058 142.93759l0 0c0 -4.1138763 3.4900665 -7.448822 7.795273 -7.448822l0 0c2.0674438 0 4.0502014 0.7847748 5.5121 2.1817017c1.4618988 1.3969269 2.2831726 3.291565 2.2831726 5.2671204l0 0c0 4.113861 -3.4900665 7.448807 -7.795273 7.448807l0 0c-4.3052063 0 -7.795273 -3.3349457 -7.795273 -7.448807z" fill-rule="evenodd"></path><path stroke="#000000" stroke-width="1.0" stroke-linejoin="round" stroke-linecap="butt" d="m162.95058 142.93759l0 0c0 -4.1138763 3.4900665 -7.448822 7.795273 -7.448822l0 0c2.0674438 0 4.0502014 0.7847748 5.5121 2.1817017c1.4618988 1.3969269 2.2831726 3.291565 2.2831726 5.2671204l0 0c0 4.113861 -3.4900665 7.448807 -7.795273 7.448807l0 0c-4.3052063 0 -7.795273 -3.3349457 -7.795273 -7.448807z" fill-rule="evenodd"></path><path fill="#000000" d="m201.99898 142.93759l0 0c0 -4.1138763 3.4900665 -7.448822 7.795273 -7.448822l0 0c2.0674438 0 4.0502014 0.7847748 5.5121 2.1817017c1.4618988 1.3969269 2.2831726 3.291565 2.2831726 5.2671204l0 0c0 4.113861 -3.4900665 7.448807 -7.795273 7.448807l0 0c-4.3052063 0 -7.795273 -3.3349457 -7.795273 -7.448807z" fill-rule="evenodd"></path><path stroke="#000000" stroke-width="1.0" stroke-linejoin="round" stroke-linecap="butt" d="m201.99898 142.93759l0 0c0 -4.1138763 3.4900665 -7.448822 7.795273 -7.448822l0 0c2.0674438 0 4.0502014 0.7847748 5.5121 2.1817017c1.4618988 1.3969269 2.2831726 3.291565 2.2831726 5.2671204l0 0c0 4.113861 -3.4900665 7.448807 -7.795273 7.448807l0 0c-4.3052063 0 -7.795273 -3.3349457 -7.795273 -7.448807z" fill-rule="evenodd"></path><path fill="#000000" d="m262.98514 142.5308l0 0c0 -4.1138763 3.4900818 -7.448822 7.795288 -7.448822l0 0c2.0674133 0 4.050171 0.78479004 5.512085 2.181717c1.4618835 1.3969116 2.2831726 3.2915497 2.2831726 5.267105l0 0c0 4.113861 -3.4900513 7.448822 -7.7952576 7.448822l0 0c-4.3052063 0 -7.795288 -3.334961 -7.795288 -7.448822z" fill-rule="evenodd"></path><path stroke="#000000" stroke-width="1.0" stroke-linejoin="round" stroke-linecap="butt" d="m262.98514 142.5308l0 0c0 -4.1138763 3.4900818 -7.448822 7.795288 -7.448822l0 0c2.0674133 0 4.050171 0.78479004 5.512085 2.181717c1.4618835 1.3969116 2.2831726 3.2915497 2.2831726 5.267105l0 0c0 4.113861 -3.4900513 7.448822 -7.7952576 7.448822l0 0c-4.3052063 0 -7.795288 -3.334961 -7.795288 -7.448822z" fill-rule="evenodd"></path></g></svg>

