<svg xmlns="http://www.w3.org/2000/svg" xmlns:se="http://svg-edit.googlecode.com" xmlns:xlink="http://www.w3.org/1999/xlink" xmlns:dc="http://purl.org/dc/elements/1.1/" xmlns:cc="http://creativecommons.org/ns#" xmlns:rdf="http://www.w3.org/1999/02/22-rdf-syntax-ns#" xmlns:inkscape="http://www.inkscape.org/namespaces/inkscape" width="777" height="480">                                    <title>my vector image</title>                                    <!-- Created with Vector Paint - http://www.vectorpaint.yaks.com/ https://chrome.google.com/webstore/detail/hnbpdiengicdefcjecjbnjnoifekhgdo -->                                    <rect id="backgroundrect" width="100%" height="100%" x="0" y="0" fill="#FFFFFF" stroke="none"/>                                <g class="currentLayer"><title>Layer 1</title><polyline fill="none" stroke="#222222" stroke-width="20" stroke-linejoin="round" stroke-dashoffset="" fill-rule="nonzero" marker-start="" marker-mid="" marker-end="" id="svg_1" points="187.42222595214844,193.333325445652 188.90370178222656,194.074048101902 190.38519287109375,194.074048101902 190.38519287109375,194.074048101902 191.86666870117188,194.074048101902 191.86666870117188,193.333325445652 193.34815979003906,193.333325445652 193.34815979003906,193.333325445652 196.3111114501953,191.85183435678482 197.0518798828125,191.85183435678482 197.79258728027344,191.85183435678482 197.79258728027344,191.11109644174576 199.27406311035156,191.11109644174576 199.27406311035156,191.11109644174576 202.23704528808594,190.3703585267067 202.23704528808594,190.3703585267067 202.97776794433594,190.3703585267067 203.71852111816406,190.3703585267067 203.71852111816406,188.8888674378395 205.20001220703125,188.8888674378395 205.20001220703125,188.8888674378395 206.6814727783203,188.8888674378395 208.16297912597656,188.8888674378395 208.16297912597656,188.8888674378395 208.16297912597656,188.14812952280045 208.90370178222656,188.14812952280045 209.6444549560547,188.14812952280045 209.6444549560547,187.40739160776138 211.1259307861328,187.40739160776138 211.1259307861328,187.40739160776138 211.1259307861328,185.92591577768326 212.60740661621094,185.92591577768326 214.0889129638672,185.18516260385513 214.0889129638672,185.18516260385513 214.0889129638672,184.44442468881607 214.82965087890625,184.44442468881607 215.5703582763672,184.44442468881607 217.0518798828125,184.44442468881607 217.0518798828125,182.96294885873795 217.0518798828125,182.96294885873795 218.53335571289062,182.22221094369888 220.0148162841797,182.22221094369888 220.0148162841797,181.48145776987076 221.49632263183594,179.25924402475357 222.97776794433594,179.25924402475357 222.97776794433594,178.5185061097145 222.97776794433594,178.5185061097145 224.45925903320312,178.5185061097145 225.9407501220703,177.03703027963638 225.9407501220703,176.29627710580826 226.6814727783203,175.5555391907692 227.4222412109375,174.07406336069107 228.90370178222656,173.333325445652 228.90370178222656,172.59257227182388 230.38519287109375,172.59257227182388 231.86666870117188,169.62960535287857 234.8296661376953,166.66665369272232 234.8296661376953,166.66665369272232 234.8296661376953,166.66665369272232 235.5703887939453,163.70367151498795 237.7926025390625,163.70367151498795 237.7926025390625,162.22221094369888 237.7926025390625,161.48147302865982 237.7926025390625,160.7407198548317 238.5333709716797,160.7407198548317 238.5333709716797,159.25925928354263 238.5333709716797,159.25925928354263 239.27407836914062,159.25925928354263 239.27407836914062,157.77776819467545 240.7555694580078,154.81478601694107 240.7555694580078,154.81478601694107 242.23707580566406,154.81478601694107 242.23707580566406,153.333325445652 242.23707580566406,152.59257227182388 243.7185516357422,152.59257227182388 243.7185516357422,151.85183435678482 243.7185516357422,151.85183435678482 243.7185516357422,150.3703585267067 244.4592742919922,150.3703585267067 244.4592742919922,148.8888674378395 246.68150329589844,148.8888674378395 246.68150329589844,148.8888674378395 246.68150329589844,148.8888674378395 246.68150329589844,147.40737634897232 246.68150329589844,146.66665369272232 246.68150329589844,145.9259005188942 248.16297912597656,145.9259005188942 248.16297912597656,144.44442468881607 248.16297912597656,144.44442468881607 249.6444854736328,144.44442468881607 249.6444854736328,142.96293359994888 249.6444854736328,142.96293359994888 249.6444854736328,142.96293359994888 249.6444854736328,141.48147302865982 250.3852081298828,141.48147302865982 252.60740661621094,141.48147302865982 252.60740661621094,142.96293359994888 252.60740661621094,143.70367151498795 252.60740661621094,144.44442468881607 252.60740661621094,145.9259005188942 252.60740661621094,145.9259005188942 252.60740661621094,147.40737634897232 252.60740661621094,147.40737634897232 252.60740661621094,148.8888674378395 252.60740661621094,149.62960535287857 252.60740661621094,150.3703585267067 252.60740661621094,151.85183435678482 252.60740661621094,151.85183435678482 252.60740661621094,153.333325445652 252.60740661621094,153.333325445652 252.60740661621094,154.81478601694107 254.0889129638672,156.29627710580826 254.0889129638672,157.77776819467545 254.0889129638672,157.77776819467545 255.5703582763672,160.7407198548317 255.5703582763672,164.44442468881607 255.5703582763672,167.40739160776138 257.0518493652344,171.11109644174576 258.5333557128906,172.59257227182388 259.2740478515625,174.07406336069107 260.01483154296875,177.03703027963638 261.4963073730469,179.99998193979263 262.237060546875,184.44442468881607 264.4592590332031,185.92591577768326 264.4592590332031,187.40739160776138 264.4592590332031,188.14812952280045 264.4592590332031,188.8888674378395 264.4592590332031,190.3703585267067 264.4592590332031,191.85183435678482 264.4592590332031,191.85183435678482 264.4592590332031,194.81480127573013 264.4592590332031,196.29627710580826 264.4592590332031,197.03703027963638 264.4592590332031,197.77775293588638 264.4592590332031,199.25924402475357 262.9777526855469,202.96294885873795 262.9777526855469,205.92591577768326 262.9777526855469,208.14812952280045 262.9777526855469,209.62960535287857 262.9777526855469,211.11109644174576 262.9777526855469,214.074048101902 261.4963073730469,215.5555391907692 261.4963073730469,217.03703027963638 261.4963073730469,218.5185061097145 261.4963073730469,222.96294885873795 261.4963073730469,224.44442468881607 261.4963073730469,225.92591577768326 261.4963073730469,228.8888674378395 261.4963073730469,230.37034326791763 260.01483154296875,233.333325445652 260.01483154296875,234.81480127573013 260.01483154296875,236.29627710580826 258.5333557128906,239.25924402475357 258.5333557128906,240.7407198548317 258.5333557128906,245.18516260385513 256.3111267089844,249.62960535287857 255.5703582763672,252.59257227182388 255.5703582763672,255.55555444955826 253.3481903076172,260.00001245737076 252.60740661621094,261.4814882874489 252.60740661621094,262.962964117527 252.60740661621094,264.44443994760513 249.6444854736328,268.88889795541763 248.16297912597656,273.333325445652 246.68150329589844,276.2963076233864 244.4592742919922,279.25925928354263 243.7185516357422,280.74073511362076 241.49632263183594,285.18516260385513 240.7555694580078,288.1481447815895 239.27407836914062,289.62962061166763 237.7926025390625,291.8518496155739 237.7926025390625,294.07407861948013 237.7926025390625,294.81483179330826 236.31112670898438,294.81483179330826 236.31112670898438,295.5555849671364 234.8296661376953,298.51853662729263 234.8296661376953,298.51853662729263 234.8296661376953,300.00001245737076 232.60743713378906,300.00001245737076 232.60743713378906,300.00001245737076 231.86666870117188,300.00001245737076 231.86666870117188,300.7407656311989 231.86666870117188,300.7407656311989 231.86666870117188,301.4814882874489 230.38519287109375,301.4814882874489 230.38519287109375,302.96299463510513 229.6444549560547,302.96299463510513 229.6444549560547,303.70371729135513 227.4222412109375,305.9259462952614 226.6814727783203,305.9259462952614 226.6814727783203,307.4074221253395 225.9407501220703,307.4074221253395 225.9407501220703,307.4074221253395 225.9407501220703,307.4074221253395 225.9407501220703,308.88889795541763 224.45925903320312,308.88889795541763 224.45925903320312,309.62962061166763 222.97776794433594,309.62962061166763 222.97776794433594,310.37037378549576 222.97776794433594,310.37037378549576 222.97776794433594,311.8518496155739 221.49632263183594,311.8518496155739 221.49632263183594,311.8518496155739 220.7555389404297,311.8518496155739 220.7555389404297,313.33335596323013 220.0148162841797,313.33335596323013 220.0148162841797,313.33335596323013 220.0148162841797,313.33335596323013 218.53335571289062,314.81483179330826 215.5703582763672,317.7777834534645 214.0889129638672,319.25925928354263 209.6444549560547,322.22218042612076 206.6814727783203,324.444409430027 202.97776794433594,326.6666689515114 199.27406311035156,329.62962061166763 196.3111114501953,331.11109644174576 193.34815979003906,334.07407861948013 190.38519287109375,334.07407861948013 187.42222595214844,337.0370607972145 182.97776794433594,339.25925928354263 182.23704528808594,340.00001245737076 181.49632263183594,341.4814882874489 181.49632263183594,341.4814882874489 181.49632263183594,341.4814882874489 179.27406311035156,341.4814882874489 179.27406311035156,342.96299463510513 178.53335571289062,342.96299463510513 178.53335571289062,342.96299463510513 178.53335571289062,342.96299463510513 177.0518798828125,344.444409430027 176.3111114501953,344.444409430027 176.3111114501953,345.18519312143326 175.5703582763672,345.18519312143326 " style="color: rgb(0, 0, 0);" class="" opacity="1"/><polyline fill="none" stroke="#222222" stroke-width="20" stroke-linejoin="round" stroke-dashoffset="" fill-rule="nonzero" marker-start="" marker-mid="" marker-end="" id="svg_9" points="535.5703172683716,264.44442188739777 535.5703172683716,262.96294605731964 535.5703172683716,262.96294605731964 537.0518236160278,262.96294605731964 537.0518236160278,261.4814702272415 537.0518236160278,261.4814702272415 537.0518236160278,259.9999943971634 538.5333299636841,259.25924122333527 538.5333299636841,257.037012219429 538.5333299636841,255.5555363893509 538.5333299636841,254.07406055927277 539.2740526199341,254.07406055927277 541.4962816238403,252.59256947040558 541.4962816238403,252.59256947040558 541.4962816238403,252.59256947040558 541.4962816238403,251.11109364032745 541.4962816238403,251.11109364032745 541.4962816238403,250.3703557252884 542.9777269363403,250.3703557252884 542.9777269363403,249.62961781024933 544.4592332839966,249.62961781024933 544.4592332839966,248.14812672138214 545.1999559402466,248.14812672138214 547.4221849441528,248.14812672138214 547.4221849441528,246.66665089130402 548.1629076004028,246.66665089130402 548.1629076004028,246.66665089130402 548.9036912918091,246.66665089130402 550.3851366043091,245.1851750612259 550.3851366043091,245.1851750612259 550.3851366043091,244.44442188739777 551.1259202957153,244.44442188739777 553.3480882644653,244.44442188739777 553.3480882644653,243.7036839723587 553.3480882644653,243.7036839723587 554.0888719558716,242.22220814228058 554.8295946121216,242.22220814228058 554.8295946121216,242.22220814228058 556.3111009597778,242.22220814228058 556.3111009597778,242.22220814228058 556.3111009597778,240.7407170534134 557.0518236160278,240.7407170534134 559.2740526199341,240.7407170534134 559.2740526199341,240.7407170534134 559.2740526199341,240.7407170534134 560.7554979324341,240.7407170534134 562.2370042800903,240.7407170534134 562.2370042800903,240.7407170534134 562.2370042800903,239.25924122333527 562.9777269363403,239.25924122333527 565.1999559402466,239.25924122333527 565.1999559402466,239.25924122333527 565.9407396316528,239.25924122333527 566.6814622879028,239.25924122333527 568.1629076004028,239.25924122333527 568.1629076004028,239.25924122333527 568.9036912918091,239.25924122333527 571.1259202957153,239.25924122333527 571.8666429519653,240.7407170534134 572.6073656082153,240.7407170534134 574.0888719558716,240.7407170534134 574.0888719558716,240.7407170534134 575.5703172683716,240.7407170534134 575.5703172683716,241.48147022724152 577.0518236160278,241.48147022724152 577.0518236160278,242.22220814228058 577.0518236160278,242.22220814228058 577.0518236160278,243.7036839723587 580.0147752761841,245.1851750612259 580.0147752761841,245.1851750612259 580.0147752761841,246.66665089130402 580.0147752761841,247.40738880634308 580.0147752761841,248.14812672138214 580.0147752761841,249.62961781024933 580.0147752761841,249.62961781024933 581.4962816238403,251.11109364032745 581.4962816238403,252.59256947040558 581.4962816238403,253.3333226442337 581.4962816238403,254.07406055927277 581.4962816238403,255.5555363893509 581.4962816238403,257.037012219429 581.4962816238403,257.037012219429 580.7554979324341,257.037012219429 580.7554979324341,258.51851856708527 580.7554979324341,259.25924122333527 580.7554979324341,259.9999943971634 580.7554979324341,261.4814702272415 580.7554979324341,262.22222340106964 580.0147752761841,262.22222340106964 580.0147752761841,262.96294605731964 580.0147752761841,262.96294605731964 580.0147752761841,264.44442188739777 580.0147752761841,265.1851750612259 580.0147752761841,265.925928235054 580.0147752761841,268.14812672138214 580.0147752761841,268.88887989521027 580.0147752761841,268.88887989521027 580.0147752761841,270.3703557252884 580.0147752761841,271.1111088991165 580.0147752761841,271.1111088991165 580.0147752761841,271.8518315553665 580.0147752761841,273.33333790302277 580.0147752761841,274.07406055927277 580.0147752761841,274.8148137331009 " style="color: rgb(0, 0, 0);" class="" opacity="1"/><polyline fill="none" stroke="#222222" stroke-width="20" stroke-linejoin="round" stroke-dashoffset="" fill-rule="nonzero" marker-start="" marker-mid="" marker-end="" id="svg_3" points="299.27408599853516,220.74072265625 300.0148239135742,221.48147583007812 300.0148239135742,220.74072265625 300.0148239135742,219.25924682617188 300.7555618286133,219.25924682617188 300.7555618286133,219.25924682617188 300.7555618286133,217.77777099609375 302.23705291748047,217.77777099609375 302.23705291748047,217.77777099609375 302.23705291748047,217.77777099609375 302.23705291748047,216.29627990722656 302.97779083251953,216.29627990722656 305.2000045776367,216.29627990722656 305.2000045776367,215.5555419921875 305.2000045776367,215.5555419921875 305.2000045776367,214.81480407714844 305.9407424926758,214.81480407714844 306.6814956665039,214.81480407714844 306.6814956665039,213.3333282470703 308.16297149658203,213.3333282470703 309.64444732666016,213.3333282470703 311.12593841552734,211.85183715820312 311.8666763305664,211.85183715820312 314.0888900756836,211.85183715820312 314.0888900756836,211.85183715820312 314.0888900756836,210.370361328125 315.5703811645508,210.370361328125 317.0518569946289,210.370361328125 318.5333480834961,210.370361328125 320.0148239135742,210.370361328125 320.7555618286133,210.370361328125 322.97779083251953,210.370361328125 323.7185287475586,210.370361328125 323.7185287475586,210.370361328125 325.94075775146484,210.370361328125 325.94075775146484,211.85183715820312 327.42223358154297,211.85183715820312 327.42223358154297,212.5925750732422 328.9037094116211,212.5925750732422 328.9037094116211,213.3333282470703 328.9037094116211,213.3333282470703 331.86666107177734,216.29627990722656 331.86666107177734,216.29627990722656 331.86666107177734,216.29627990722656 331.86666107177734,218.5185089111328 331.86666107177734,218.5185089111328 331.86666107177734,219.25924682617188 331.86666107177734,220.74072265625 333.3481674194336,220.74072265625 333.3481674194336,222.2222137451172 334.8296432495117,223.7036895751953 334.8296432495117,224.44442749023438 334.8296432495117,224.44442749023438 334.8296432495117,225.18516540527344 334.8296432495117,226.66665649414062 334.8296432495117,227.4073944091797 334.8296432495117,228.14813232421875 334.8296432495117,228.14813232421875 334.8296432495117,230.370361328125 334.8296432495117,231.11109924316406 334.8296432495117,232.5925750732422 334.8296432495117,234.07406616210938 334.8296432495117,234.07406616210938 334.8296432495117,235.5555419921875 334.8296432495117,235.5555419921875 334.8296432495117,237.03701782226562 334.8296432495117,237.03701782226562 334.8296432495117,241.48147583007812 334.8296432495117,242.2222137451172 334.8296432495117,245.18516540527344 332.60741424560547,248.14813232421875 332.60741424560547,253.33331298828125 332.60741424560547,254.81480407714844 332.60741424560547,256.29627990722656 331.86666107177734,262.96295166015625 330.3851852416992,265.92591857910156 330.3851852416992,269.62962341308594 328.9037094116211,274.0740661621094 328.9037094116211,275.5555419921875 328.9037094116211,277.0370178222656 328.9037094116211,278.5185089111328 328.9037094116211,279.99998474121094 328.9037094116211,282.96295166015625 328.9037094116211,284.4444274902344 328.9037094116211,287.4073944091797 328.9037094116211,287.4073944091797 328.9037094116211,290.370361328125 328.9037094116211,292.5925750732422 328.9037094116211,293.33331298828125 328.9037094116211,294.81480407714844 329.6444625854492,294.81480407714844 329.6444625854492,295.5555419921875 331.86666107177734,297.7777557373047 334.8296432495117,299.2592468261719 334.8296432495117,299.2592468261719 336.31111907958984,300.74072265625 340.75557708740234,302.2222137451172 343.7185287475586,303.7036895751953 344.4592514038086,303.7036895751953 344.4592514038086,304.4444274902344 346.68148040771484,304.4444274902344 346.68148040771484,304.4444274902344 346.68148040771484,305.18516540527344 346.68148040771484,305.18516540527344 " style="color: rgb(0, 0, 0);" class="" opacity="1"/><polyline fill="none" stroke="#222222" stroke-width="20" stroke-linejoin="round" stroke-dashoffset="" fill-rule="nonzero" marker-start="" marker-mid="" marker-end="" id="svg_4" points="332.607421875,248.14813512563705 332.607421875,248.88887304067612 330.3852233886719,248.88887304067612 329.64447021484375,248.88887304067612 329.64447021484375,248.88887304067612 328.1629943847656,248.88887304067612 326.6815185546875,248.88887304067612 325.20001220703125,248.88887304067612 324.45928955078125,248.88887304067612 323.7185363769531,248.88887304067612 323.7185363769531,248.88887304067612 322.237060546875,248.88887304067612 320.7555847167969,248.88887304067612 320.7555847167969,248.88887304067612 319.27410888671875,248.88887304067612 318.5333557128906,248.88887304067612 317.7926025390625,248.88887304067612 317.7926025390625,248.88887304067612 316.3111267089844,248.88887304067612 314.82965087890625,248.88887304067612 314.82965087890625,248.88887304067612 312.607421875,248.88887304067612 311.86669921875,248.88887304067612 311.86669921875,248.88887304067612 310.38519287109375,248.88887304067612 308.9037170410156,248.88887304067612 307.4222412109375,249.62961095571518 306.6814880371094,249.62961095571518 305.9407653808594,249.62961095571518 305.9407653808594,249.62961095571518 303.7185363769531,249.62961095571518 303.7185363769531,251.11110204458237 302.9778137207031,251.11110204458237 302.9778137207031,251.11110204458237 301.4963073730469,251.11110204458237 300.7555847167969,251.85183995962143 300.01483154296875,251.85183995962143 300.01483154296875,252.5925778746605 300.01483154296875,252.5925778746605 297.0518798828125,254.07405370473862 294.82965087890625,255.5555447936058 294.0888977050781,255.5555447936058 294.0888977050781,255.5555447936058 294.0888977050781,255.5555447936058 292.607421875,255.5555447936058 292.607421875,257.037035882473 291.86669921875,257.037035882473 291.1259460449219,257.777758538723 291.1259460449219,258.5185117125511 288.9037170410156,260.74074071645737 288.1629943847656,261.48146337270737 288.1629943847656,262.9629697203636 288.1629943847656,262.9629697203636 288.1629943847656,262.9629697203636 288.1629943847656,263.7036923766136 288.1629943847656,264.4444150328636 288.1629943847656,265.92592138051987 286.6814880371094,265.92592138051987 286.6814880371094,266.66664403676987 286.6814880371094,267.407397210598 286.6814880371094,268.8888730406761 286.6814880371094,268.8888730406761 285.20001220703125,268.8888730406761 285.20001220703125,269.6295956969261 285.20001220703125,270.37037938833237 285.20001220703125,271.85182470083237 285.20001220703125,272.5925778746605 285.20001220703125,273.3333310484886 285.20001220703125,274.81480687856674 285.20001220703125,274.81480687856674 285.20001220703125,276.29628270864487 285.20001220703125,277.777758538723 285.20001220703125,278.5185117125511 285.20001220703125,279.2592343688011 285.20001220703125,280.74074071645737 285.20001220703125,280.74074071645737 285.20001220703125,280.74074071645737 285.20001220703125,282.22218602895737 285.20001220703125,282.22218602895737 285.20001220703125,284.4444150328636 285.20001220703125,285.18516820669174 285.20001220703125,286.66664403676987 285.20001220703125,286.66664403676987 285.20001220703125,288.148119866848 285.20001220703125,288.148119866848 285.20001220703125,289.6295956969261 285.20001220703125,290.37034887075424 285.20001220703125,291.11110204458237 285.20001220703125,292.5925778746605 285.20001220703125,292.5925778746605 285.20001220703125,292.5925778746605 285.20001220703125,294.0740537047386 285.9407653808594,294.0740537047386 286.6814880371094,294.0740537047386 286.6814880371094,294.0740537047386 288.1629943847656,294.0740537047386 289.64447021484375,295.55556005239487 289.64447021484375,296.29628270864487 291.1259460449219,296.29628270864487 291.86669921875,297.037035882473 294.0888977050781,298.5185117125511 294.0888977050781,298.5185117125511 294.82965087890625,298.5185117125511 297.0518798828125,299.99998754262924 297.0518798828125,299.99998754262924 298.5333557128906,299.99998754262924 300.01483154296875,299.99998754262924 300.01483154296875,299.99998754262924 300.7555847167969,299.99998754262924 301.4963073730469,299.99998754262924 302.9778137207031,299.99998754262924 302.9778137207031,299.99998754262924 304.45928955078125,299.99998754262924 305.9407653808594,299.99998754262924 305.9407653808594,299.99998754262924 306.6814880371094,299.99998754262924 307.4222412109375,299.99998754262924 308.9037170410156,299.99998754262924 308.9037170410156,299.99998754262924 310.38519287109375,299.99998754262924 311.86669921875,299.99998754262924 311.86669921875,299.99998754262924 312.607421875,299.99998754262924 313.3481750488281,299.99998754262924 314.82965087890625,299.99998754262924 314.82965087890625,299.99998754262924 316.3111267089844,299.99998754262924 316.3111267089844,299.99998754262924 317.7926025390625,299.99998754262924 317.7926025390625,299.99998754262924 319.27410888671875,298.5185117125511 320.7555847167969,298.5185117125511 322.237060546875,297.037035882473 323.7185363769531,297.037035882473 323.7185363769531,296.29628270864487 324.45928955078125,296.29628270864487 326.6815185546875,295.55556005239487 326.6815185546875,295.55556005239487 326.6815185546875,294.0740537047386 328.1629943847656,294.0740537047386 329.64447021484375,294.0740537047386 329.64447021484375,293.3333310484886 329.64447021484375,293.3333310484886 " style="color: rgb(0, 0, 0);" class="" opacity="1"/><polyline fill="none" stroke="#222222" stroke-width="20" stroke-linejoin="round" stroke-dashoffset="" fill-rule="nonzero" marker-start="" marker-mid="" marker-end="" id="svg_5" points="347.42222595214844,168.14813613891602 350.3852081298828,168.14813613891602 350.3852081298828,168.14813613891602 351.1259307861328,168.88887405395508 353.34815979003906,169.6296272277832 353.34815979003906,169.6296272277832 354.8296356201172,169.6296272277832 356.3111114501953,171.11110305786133 356.3111114501953,171.11110305786133 357.05186462402344,171.11110305786133 357.79261779785156,171.11110305786133 357.79261779785156,171.8518409729004 359.2740936279297,171.8518409729004 359.2740936279297,172.59257888793945 360.7555694580078,174.8148078918457 362.23704528808594,174.8148078918457 362.23704528808594,175.55554580688477 362.23704528808594,177.0370216369629 362.23704528808594,177.0370216369629 362.97779846191406,177.0370216369629 362.97779846191406,178.51851272583008 365.2000274658203,178.51851272583008 365.2000274658203,179.9999885559082 365.2000274658203,180.74072647094727 365.2000274658203,180.74072647094727 365.2000274658203,182.96295547485352 365.2000274658203,182.96295547485352 365.2000274658203,184.44443130493164 365.2000274658203,184.44443130493164 366.68150329589844,186.6666603088379 366.68150329589844,187.40739822387695 368.16297912597656,189.6296272277832 368.16297912597656,192.59257888793945 368.16297912597656,193.33331680297852 368.16297912597656,194.8148078918457 369.6444549560547,197.77777481079102 371.1259307861328,198.51851272583008 371.1259307861328,199.25925064086914 371.1259307861328,200.74072647094727 371.1259307861328,203.70369338989258 371.1259307861328,205.1851692199707 371.1259307861328,205.1851692199707 372.60740661621094,206.6666603088379 372.60740661621094,210.37036514282227 372.60740661621094,211.11110305786133 372.60740661621094,212.59259414672852 372.60740661621094,213.33331680297852 372.60740661621094,217.0370216369629 371.86668395996094,219.25925064086914 371.86668395996094,222.2222023010254 371.86668395996094,224.44443130493164 371.86668395996094,225.9259376525879 371.1259307861328,228.14813613891602 371.1259307861328,231.1111183166504 371.1259307861328,231.8518409729004 371.1259307861328,234.07406997680664 371.1259307861328,236.2962989807129 369.6444549560547,239.25925064086914 369.6444549560547,240.74072647094727 369.6444549560547,242.2222023010254 369.6444549560547,242.2222023010254 369.6444549560547,243.70367813110352 369.6444549560547,243.70367813110352 369.6444549560547,245.92590713500977 369.6444549560547,246.6666603088379 369.6444549560547,248.14813613891602 371.1259307861328,249.62961196899414 371.1259307861328,251.1111183166504 371.1259307861328,252.59259414672852 371.1259307861328,252.59259414672852 371.1259307861328,254.07406997680664 371.1259307861328,255.55554580688477 371.1259307861328,257.0370216369629 371.1259307861328,258.51852798461914 371.1259307861328,258.51852798461914 371.1259307861328,260.74072647094727 371.1259307861328,261.4814796447754 371.1259307861328,262.9629554748535 371.1259307861328,264.44443130493164 371.1259307861328,265.92590713500977 371.1259307861328,265.92590713500977 371.1259307861328,266.6666603088379 371.1259307861328,267.4073829650879 371.1259307861328,268.88888931274414 " style="color: rgb(0, 0, 0);" class="" opacity="1"/><polyline fill="none" stroke="#222222" stroke-width="20" stroke-linejoin="round" stroke-dashoffset="" fill-rule="nonzero" marker-start="" marker-mid="" marker-end="" id="svg_6" points="365.94078063964844,170.3703498840332 367.42225646972656,171.11108779907227 368.9037322998047,171.11108779907227 368.9037322998047,169.62961196899414 368.9037322998047,169.62961196899414 370.3852081298828,169.62961196899414 370.3852081298828,168.14813613891602 371.86668395996094,165.1851692199707 372.60743713378906,164.44443130493164 372.60743713378906,163.70369338989258 374.8296661376953,163.70369338989258 374.8296661376953,162.2222023010254 374.8296661376953,162.2222023010254 374.8296661376953,162.2222023010254 375.5703887939453,162.2222023010254 377.79261779785156,160.74072647094727 377.79261779785156,160.74072647094727 377.79261779785156,160.74072647094727 379.2740936279297,159.25925064086914 380.7555694580078,159.25925064086914 380.7555694580078,159.25925064086914 381.49632263183594,158.51849746704102 382.23707580566406,158.51849746704102 383.7185516357422,158.51849746704102 383.7185516357422,158.51849746704102 386.68150329589844,157.77775955200195 386.68150329589844,157.77775955200195 389.6444549560547,157.77775955200195 389.6444549560547,157.77775955200195 389.6444549560547,157.77775955200195 391.12596130371094,157.77775955200195 392.60743713378906,157.77775955200195 392.60743713378906,157.77775955200195 395.5703887939453,157.77775955200195 396.31114196777344,157.77775955200195 398.5333709716797,157.77775955200195 398.5333709716797,157.77775955200195 398.5333709716797,157.77775955200195 401.49632263183594,159.25925064086914 401.49632263183594,159.25925064086914 401.49632263183594,159.25925064086914 401.49632263183594,160.74072647094727 402.23707580566406,160.74072647094727 402.23707580566406,161.48146438598633 404.4592742919922,161.48146438598633 404.4592742919922,162.2222023010254 404.4592742919922,162.2222023010254 404.4592742919922,163.70369338989258 405.94078063964844,165.1851692199707 405.94078063964844,165.1851692199707 407.42225646972656,165.1851692199707 407.42225646972656,166.66664505004883 407.42225646972656,167.40739822387695 407.42225646972656,168.14813613891602 408.9037322998047,168.14813613891602 408.9037322998047,169.62961196899414 408.9037322998047,169.62961196899414 410.3852081298828,169.62961196899414 410.3852081298828,171.11108779907227 410.3852081298828,171.11108779907227 410.3852081298828,172.59257888793945 410.3852081298828,173.33331680297852 411.12596130371094,173.33331680297852 411.12596130371094,175.55554580688477 411.86668395996094,176.29628372192383 411.86668395996094,177.0370216369629 411.86668395996094,177.0370216369629 411.86668395996094,178.51849746704102 413.34815979003906,179.25925064086914 413.34815979003906,181.48146438598633 413.34815979003906,182.2222023010254 413.34815979003906,182.96294021606445 413.34815979003906,184.44443130493164 413.34815979003906,185.92590713500977 413.34815979003906,187.40739822387695 413.34815979003906,188.14813613891602 413.34815979003906,188.88887405395508 413.34815979003906,190.3703498840332 413.34815979003906,190.3703498840332 413.34815979003906,191.8518409729004 413.34815979003906,191.8518409729004 413.34815979003906,193.33331680297852 413.34815979003906,194.81479263305664 413.34815979003906,196.29628372192383 413.34815979003906,197.0370216369629 414.8296661376953,197.77775955200195 414.8296661376953,197.77775955200195 414.8296661376953,199.25923538208008 414.8296661376953,199.9999885559082 414.8296661376953,200.74072647094727 414.8296661376953,202.22221755981445 414.8296661376953,202.22221755981445 414.8296661376953,203.70369338989258 414.8296661376953,203.70369338989258 414.8296661376953,205.1851692199707 414.8296661376953,205.92592239379883 414.8296661376953,206.66664505004883 414.8296661376953,208.14815139770508 414.8296661376953,208.14815139770508 416.31114196777344,212.59259414672852 416.31114196777344,214.07406997680664 416.31114196777344,217.0370216369629 416.31114196777344,218.51852798461914 416.31114196777344,218.51852798461914 416.31114196777344,220.00000381469727 416.31114196777344,222.96295547485352 416.31114196777344,227.4073829650879 416.31114196777344,231.8518409729004 416.31114196777344,234.81479263305664 416.31114196777344,235.55554580688477 416.31114196777344,236.2962989807129 416.31114196777344,237.77777481079102 416.31114196777344,239.25925064086914 416.31114196777344,239.25925064086914 417.79261779785156,242.22223281860352 417.79261779785156,242.22223281860352 417.79261779785156,243.70370864868164 417.79261779785156,244.44443130493164 417.79261779785156,245.18518447875977 417.79261779785156,246.6666603088379 417.79261779785156,246.6666603088379 417.79261779785156,247.4073829650879 417.79261779785156,248.14816665649414 417.79261779785156,249.62961196899414 417.79261779785156,250.37036514282227 417.79261779785156,251.1111183166504 417.79261779785156,252.59259414672852 417.79261779785156,252.59259414672852 417.79261779785156,253.33331680297852 " style="color: rgb(0, 0, 0);" class="" opacity="1"/><polyline fill="none" stroke="#222222" stroke-width="20" stroke-linejoin="round" stroke-dashoffset="" fill-rule="nonzero" marker-start="" marker-mid="" marker-end="" id="svg_7" points="435.5704040527344,306.66664403676987 438.5333557128906,306.66664403676987 438.5333557128906,306.66664403676987 438.5333557128906,305.18519872426987 438.5333557128906,304.4444150328636 439.27410888671875,304.4444150328636 439.27410888671875,303.7036923766136 440.01483154296875,303.7036923766136 441.4963073730469,302.2222165465355 441.4963073730469,300.74074071645737 441.4963073730469,300.74074071645737 441.4963073730469,300.74074071645737 442.237060546875,300.74074071645737 442.237060546875,299.25926488637924 442.237060546875,298.5185117125511 444.45928955078125,298.5185117125511 444.45928955078125,297.7777890563011 444.45928955078125,296.29628270864487 445.20001220703125,296.29628270864487 445.20001220703125,294.81480687856674 445.9407653808594,294.81480687856674 445.9407653808594,293.3333310484886 447.4222412109375,293.3333310484886 447.4222412109375,292.5925778746605 447.4222412109375,291.85182470083237 447.4222412109375,291.85182470083237 447.4222412109375,290.37034887075424 448.1629943847656,288.8888730406761 450.38519287109375,287.407397210598 450.38519287109375,287.407397210598 450.38519287109375,285.92592138051987 450.38519287109375,285.92592138051987 451.1259460449219,283.7036923766136 451.86669921875,283.7036923766136 451.86669921875,282.9629697203636 453.3481750488281,280.74074071645737 453.3481750488281,279.99998754262924 453.3481750488281,279.99998754262924 454.82965087890625,279.99998754262924 454.82965087890625,278.5185117125511 454.82965087890625,277.7777890563011 456.3111267089844,277.7777890563011 456.3111267089844,277.037035882473 456.3111267089844,275.55556005239487 456.3111267089844,275.55556005239487 457.0518798828125,274.0740537047386 459.27410888671875,271.85182470083237 459.27410888671875,271.11110204458237 459.27410888671875,269.62962621450424 459.27410888671875,269.62962621450424 459.27410888671875,269.62962621450424 459.27410888671875,268.8888730406761 460.01483154296875,268.8888730406761 460.01483154296875,268.1481503844261 460.01483154296875,266.66664403676987 460.7555847167969,265.92592138051987 462.237060546875,262.9629697203636 462.237060546875,260.74074071645737 462.237060546875,259.25926488637924 463.7185363769531,257.037035882473 465.20001220703125,254.81480687856674 465.9407653808594,253.33333104848862 465.9407653808594,251.11110204458237 466.6814880371094,248.88888829946518 468.1629943847656,247.407397210598 468.9037170410156,245.1851834654808 469.64447021484375,242.96295446157455 469.64447021484375,241.48147863149643 471.1259460449219,239.25924962759018 471.86669921875,237.037035882473 471.86669921875,234.07406896352768 474.0888977050781,232.59259313344955 474.0888977050781,231.11110204458237 474.0888977050781,230.3703641295433 474.0888977050781,228.14813512563705 474.0888977050781,226.66665929555893 474.0888977050781,225.1851834654808 472.607421875,223.70369237661362 472.607421875,223.70369237661362 471.86669921875,221.48147863149643 471.86669921875,220.74074071645737 471.86669921875,219.25924962759018 471.1259460449219,219.25924962759018 471.1259460449219,218.51851171255112 471.1259460449219,217.77777379751205 471.1259460449219,217.77777379751205 471.1259460449219,217.77777379751205 471.1259460449219,216.29629796743393 468.9037170410156,215.5555447936058 468.1629943847656,213.33333104848862 468.1629943847656,212.59259313344955 468.1629943847656,211.85183995962143 466.6814880371094,210.3703641295433 466.6814880371094,208.88888829946518 465.20001220703125,208.88888829946518 465.20001220703125,208.88888829946518 465.20001220703125,208.88888829946518 463.7185363769531,208.88888829946518 462.9778137207031,208.88888829946518 462.237060546875,208.88888829946518 462.237060546875,208.88888829946518 460.7555847167969,208.88888829946518 459.27410888671875,209.62962621450424 459.27410888671875,210.3703641295433 459.27410888671875,211.85183995962143 459.27410888671875,213.33333104848862 459.27410888671875,213.33333104848862 459.27410888671875,215.5555447936058 459.27410888671875,216.29629796743393 459.27410888671875,217.77777379751205 459.27410888671875,218.51851171255112 459.27410888671875,219.25924962759018 459.27410888671875,219.25924962759018 459.27410888671875,220.74074071645737 459.27410888671875,221.48147863149643 459.27410888671875,222.2222165465355 459.27410888671875,223.70369237661362 459.27410888671875,224.44444555044174 459.27410888671875,225.1851834654808 460.01483154296875,225.1851834654808 460.01483154296875,226.66665929555893 460.7555847167969,226.66665929555893 460.7555847167969,227.407397210598 462.237060546875,229.62962621450424 462.237060546875,231.11110204458237 463.7185363769531,233.33333104848862 465.20001220703125,234.07406896352768 465.20001220703125,235.5555447936058 465.20001220703125,235.5555447936058 465.20001220703125,235.5555447936058 465.9407653808594,235.5555447936058 465.9407653808594,236.29629796743393 468.1629943847656,239.25924962759018 468.9037170410156,239.25924962759018 468.9037170410156,239.99998754262924 469.64447021484375,239.99998754262924 471.1259460449219,242.2222165465355 471.1259460449219,242.96295446157455 472.607421875,244.44444555044174 474.0888977050781,244.44444555044174 474.0888977050781,245.92592138051987 474.82965087890625,245.92592138051987 477.0518798828125,248.88888829946518 477.7926025390625,248.88888829946518 478.5333557128906,250.3703641295433 478.5333557128906,251.11110204458237 480.01483154296875,251.11110204458237 480.01483154296875,253.33333104848862 481.4963073730469,253.33333104848862 481.4963073730469,254.81480687856674 482.9778137207031,254.81480687856674 482.9778137207031,254.81480687856674 482.9778137207031,256.29628270864487 483.7185363769531,257.777758538723 485.9407653808594,259.99998754262924 485.9407653808594,259.99998754262924 485.9407653808594,260.74074071645737 485.9407653808594,262.2222165465355 486.6814880371094,263.7036923766136 487.4222412109375,263.7036923766136 488.9037170410156,266.66664403676987 488.9037170410156,266.66664403676987 488.9037170410156,268.1481503844261 488.9037170410156,268.1481503844261 488.9037170410156,268.8888730406761 490.38519287109375,271.85182470083237 490.38519287109375,272.5926083922386 490.38519287109375,274.0740537047386 490.38519287109375,277.7777890563011 491.86669921875,279.99998754262924 491.86669921875,282.9629697203636 491.86669921875,284.4444150328636 491.86669921875,286.66664403676987 491.86669921875,288.8888730406761 491.86669921875,290.37034887075424 491.86669921875,292.5925778746605 491.86669921875,294.81480687856674 491.86669921875,296.29628270864487 491.86669921875,299.25926488637924 493.3481750488281,301.48146337270737 493.3481750488281,303.7036923766136 493.3481750488281,306.66664403676987 493.3481750488281,307.407397210598 492.607421875,309.62962621450424 491.86669921875,309.62962621450424 491.86669921875,311.11110204458237 488.9037170410156,311.11110204458237 487.4222412109375,312.5925778746605 485.9407653808594,313.3333310484886 485.9407653808594,313.3333310484886 485.9407653808594,313.3333310484886 483.7185363769531,313.3333310484886 482.9778137207031,313.3333310484886 481.4963073730469,314.0740537047386 480.01483154296875,314.0740537047386 480.01483154296875,314.0740537047386 478.5333557128906,314.0740537047386 477.0518798828125,314.0740537047386 477.0518798828125,314.0740537047386 475.5704040527344,314.0740537047386 474.0888977050781,314.0740537047386 474.0888977050781,314.0740537047386 469.64447021484375,314.0740537047386 468.9037170410156,314.0740537047386 468.1629943847656,314.0740537047386 468.1629943847656,314.0740537047386 465.20001220703125,314.0740537047386 460.7555847167969,314.0740537047386 457.7926025390625,314.0740537047386 456.3111267089844,313.3333310484886 453.3481750488281,313.3333310484886 453.3481750488281,313.3333310484886 453.3481750488281,313.3333310484886 453.3481750488281,312.5925778746605 451.1259460449219,312.5925778746605 450.38519287109375,312.5925778746605 450.38519287109375,311.11110204458237 450.38519287109375,311.11110204458237 448.9037170410156,311.11110204458237 448.9037170410156,309.62962621450424 447.4222412109375,308.1481503844261 447.4222412109375,307.407397210598 447.4222412109375,307.407397210598 447.4222412109375,305.18519872426987 445.9407653808594,303.7036923766136 445.9407653808594,302.2222165465355 445.9407653808594,302.2222165465355 445.9407653808594,300.74074071645737 445.9407653808594,300.74074071645737 445.9407653808594,299.25926488637924 445.20001220703125,299.25926488637924 445.20001220703125,298.5185117125511 444.45928955078125,296.29628270864487 444.45928955078125,296.29628270864487 " style="color: rgb(0, 0, 0);" class="" opacity="1"/><polyline fill="none" stroke="#222222" stroke-width="20" stroke-linejoin="round" stroke-dashoffset="" fill-rule="nonzero" marker-start="" marker-mid="" marker-end="" id="svg_8" points="517.7926073074341,238.5185033082962 517.7926073074341,239.25924122333527 517.7926073074341,239.25924122333527 519.2740526199341,239.25924122333527 520.7555589675903,239.25924122333527 521.4962816238403,239.25924122333527 523.7185106277466,240.7407170534134 523.7185106277466,241.48147022724152 524.4592332839966,241.48147022724152 526.6814622879028,242.22220814228058 526.6814622879028,243.7036839723587 526.6814622879028,243.7036839723587 526.6814622879028,243.7036839723587 528.1629076004028,243.7036839723587 529.6444139480591,244.44442188739777 529.6444139480591,246.66665089130402 530.3851366043091,247.40738880634308 531.1259202957153,248.14812672138214 531.1259202957153,249.62961781024933 532.6073656082153,251.11109364032745 532.6073656082153,251.11109364032745 533.3481492996216,253.3333226442337 535.5703172683716,258.51851856708527 535.5703172683716,262.96294605731964 535.5703172683716,265.925928235054 535.5703172683716,267.40740406513214 536.3111009597778,267.40740406513214 536.3111009597778,267.40740406513214 536.3111009597778,268.14812672138214 536.3111009597778,268.88887989521027 536.3111009597778,270.3703557252884 536.3111009597778,271.1111088991165 536.3111009597778,271.8518315553665 536.3111009597778,273.33333790302277 536.3111009597778,273.33333790302277 537.0518236160278,274.07406055927277 537.0518236160278,274.8148137331009 537.0518236160278,276.296289563179 537.0518236160278,277.77776539325714 537.0518236160278,279.25924122333527 537.0518236160278,280.7407170534134 538.5333299636841,280.7407170534134 538.5333299636841,280.7407170534134 538.5333299636841,282.22222340106964 538.5333299636841,282.96294605731964 538.5333299636841,283.70369923114777 538.5333299636841,288.14815723896027 538.5333299636841,288.14815723896027 538.5333299636841,291.1111088991165 538.5333299636841,292.59258472919464 538.5333299636841,292.59258472919464 538.5333299636841,295.5555363893509 538.5333299636841,297.03704273700714 538.5333299636841,297.77776539325714 538.5333299636841,298.51851856708527 538.5333299636841,299.9999943971634 538.5333299636841,301.48150074481964 538.5333299636841,302.96294605731964 538.5333299636841,303.70369923114777 538.5333299636841,304.4444524049759 538.5333299636841,305.925928235054 538.5333299636841,305.925928235054 538.5333299636841,307.40740406513214 538.5333299636841,307.40740406513214 538.5333299636841,308.88887989521027 538.5333299636841,309.6296330690384 538.5333299636841,310.3703557252884 538.5333299636841,313.33330738544464 538.5333299636841,317.77776539325714 538.5333299636841,318.51851856708527 538.5333299636841,321.4814702272415 538.5333299636841,322.22222340106964 538.5333299636841,323.70369923114777 538.5333299636841,326.66668140888214 538.5333299636841,326.66668140888214 538.5333299636841,331.1111088991165 538.5333299636841,331.1111088991165 538.5333299636841,332.59258472919464 538.5333299636841,333.33330738544464 538.5333299636841,334.0740910768509 538.5333299636841,335.5555363893509 538.5333299636841,335.5555363893509 538.5333299636841,337.03704273700714 538.5333299636841,337.03704273700714 538.5333299636841,338.51851856708527 538.5333299636841,339.25924122333527 538.5333299636841,339.9999943971634 538.5333299636841,341.4814702272415 538.5333299636841,341.4814702272415 538.5333299636841,342.96294605731964 538.5333299636841,342.96294605731964 538.5333299636841,344.4444524049759 " style="color: rgb(0, 0, 0);" class="" opacity="1"/><polyline fill="none" stroke="#222222" stroke-width="10" stroke-linejoin="round" stroke-dashoffset="" fill-rule="nonzero" marker-start="" marker-mid="" marker-end="" id="svg_2" points="204.45925903320312,199.25924682617188 204.45925903320312,199.99998474121094 204.45925903320312,199.99998474121094 204.45925903320312,202.96295166015625 204.45925903320312,202.96295166015625 204.45925903320312,204.44442749023438 204.45925903320312,205.18516540527344 204.45925903320312,205.9259033203125 204.45925903320312,207.4073944091797 204.45925903320312,208.8888702392578 204.45925903320312,208.8888702392578 204.45925903320312,210.37034606933594 204.45925903320312,211.11109924316406 204.45925903320312,211.85183715820312 204.45925903320312,213.3333282470703 204.45925903320312,214.81480407714844 204.45925903320312,214.81480407714844 204.45925903320312,217.0370330810547 204.45925903320312,219.25924682617188 204.45925903320312,219.99998474121094 204.45925903320312,220.74072265625 204.45925903320312,222.2222137451172 204.45925903320312,222.2222137451172 204.45925903320312,223.7036895751953 204.45925903320312,225.18516540527344 204.45925903320312,225.9259033203125 204.45925903320312,226.66664123535156 204.45925903320312,228.14813232421875 202.977783203125,228.14813232421875 202.977783203125,228.14813232421875 202.977783203125,229.62962341308594 202.977783203125,229.62962341308594 202.977783203125,231.11109924316406 202.977783203125,231.85183715820312 202.977783203125,232.5925750732422 202.977783203125,234.0740509033203 202.977783203125,234.0740509033203 202.977783203125,235.5555419921875 202.977783203125,240.74072265625 202.977783203125,241.48146057128906 202.977783203125,242.96295166015625 202.977783203125,242.96295166015625 202.977783203125,245.9259033203125 202.977783203125,246.66665649414062 202.977783203125,247.4073944091797 202.977783203125,248.8888702392578 202.977783203125,249.62960815429688 202.977783203125,250.370361328125 202.977783203125,253.33331298828125 202.977783203125,254.81480407714844 202.977783203125,256.2962951660156 202.977783203125,258.5185241699219 202.977783203125,262.2221984863281 202.977783203125,263.7037048339844 202.977783203125,267.40740966796875 202.977783203125,269.6296081542969 202.977783203125,271.1111145019531 202.977783203125,273.33331298828125 202.977783203125,276.2962951660156 202.977783203125,280 202.977783203125,281.4814758300781 202.977783203125,284.4444274902344 202.977783203125,285.9259033203125 202.977783203125,288.14813232421875 202.977783203125,290.370361328125 202.977783203125,291.8518371582031 202.977783203125,294.8148193359375 202.977783203125,297.03704833984375 202.977783203125,299.25927734375 202.977783203125,302.22222900390625 202.977783203125,303.7037048339844 202.977783203125,305.1851806640625 202.977783203125,305.9259033203125 202.977783203125,309.629638671875 202.977783203125,311.1111145019531 202.977783203125,311.1111145019531 202.977783203125,312.59259033203125 202.977783203125,312.59259033203125 202.977783203125,314.0740661621094 202.977783203125,314.8148193359375 202.977783203125,315.5555419921875 202.977783203125,317.03704833984375 202.977783203125,317.03704833984375 " style="color: rgb(0, 0, 0);" class="" opacity="0.66"/><polyline fill="none" stroke="#222222" stroke-width="2" stroke-linejoin="round" stroke-dashoffset="" fill-rule="nonzero" marker-start="" marker-mid="" marker-end="" id="svg_10" points="293.64444471916556,222.3703670502527 293.64444471916556,222.3703670502527 293.64444471916556,221.62962633363185 293.64444471916556,221.62962633363185 293.64444471916556,221.62962633363185 293.64444471916556,223.1111077668736 293.64444471916556,223.1111077668736 294.3851854357864,223.1111077668736 294.3851854357864,222.3703670502527 294.3851854357864,221.62962633363185 296.6074075856491,221.62962633363185 296.6074075856491,221.62962633363185 297.34814830227,221.62962633363185 298.0888890188909,221.62962633363185 298.0888890188909,223.1111077668736 298.0888890188909,223.1111077668736 298.0888890188909,224.59258920011538 296.6074075856491,224.59258920011538 296.6074075856491,224.59258920011538 296.6074075856491,225.33332991673626 295.1259261524073,225.33332991673626 294.3851854357864,225.33332991673626 294.3851854357864,224.59258920011538 293.64444471916556,224.59258920011538 293.64444471916556,223.1111077668736 293.64444471916556,222.3703670502527 293.64444471916556,223.1111077668736 293.64444471916556,226.07407063335714 295.1259261524073,226.07407063335714 295.1259261524073,225.33332991673626 295.1259261524073,224.59258920011538 296.6074075856491,224.59258920011538 296.6074075856491,223.1111077668736 296.6074075856491,223.1111077668736 296.6074075856491,223.1111077668736 296.6074075856491,221.62962633363185 294.3851854357864,221.62962633363185 293.64444471916556,222.3703670502527 293.64444471916556,223.1111077668736 293.64444471916556,224.59258920011538 293.64444471916556,223.1111077668736 293.64444471916556,223.1111077668736 293.64444471916556,221.62962633363185 293.64444471916556,221.62962633363185 292.16296328592375,221.62962633363185 292.16296328592375,222.3703670502527 291.42222256930285,222.3703670502527 291.42222256930285,224.59258920011538 291.42222256930285,224.59258920011538 292.16296328592375,226.07407063335714 292.16296328592375,227.55555206659895 293.64444471916556,227.55555206659895 293.64444471916556,228.29629278321985 293.64444471916556,227.55555206659895 293.64444471916556,226.07407063335714 293.64444471916556,226.07407063335714 293.64444471916556,226.07407063335714 293.64444471916556,224.59258920011538 293.64444471916556,224.59258920011538 293.64444471916556,224.59258920011538 293.64444471916556,223.1111077668736 293.64444471916556,222.3703670502527 293.64444471916556,221.62962633363185 293.64444471916556,221.62962633363185 293.64444471916556,222.3703670502527 293.64444471916556,223.1111077668736 295.1259261524073,223.1111077668736 295.1259261524073,224.59258920011538 296.6074075856491,224.59258920011538 296.6074075856491,224.59258920011538 296.6074075856491,224.59258920011538 296.6074075856491,224.59258920011538 294.3851854357864,224.59258920011538 293.64444471916556,224.59258920011538 293.64444471916556,224.59258920011538 292.16296328592375,224.59258920011538 291.42222256930285,224.59258920011538 291.42222256930285,223.1111077668736 291.42222256930285,222.3703670502527 290.681481852682,222.3703670502527 " style="color: rgb(0, 0, 0);"/><polyline fill="none" stroke="#222222" stroke-width="2" stroke-linejoin="round" stroke-dashoffset="" fill-rule="nonzero" marker-start="" marker-mid="" marker-end="" id="svg_11" points="181.0518569946289,197.1851806640625 182.25555419921875,194.71604919433594 185.86666107177734,194.71604919433594 185.86666107177734,192.24693298339844 185.86666107177734,192.24693298339844 185.86666107177734,191.01234436035156 185.86666107177734,189.7777862548828 183.4592514038086,189.7777862548828 182.25555419921875,189.7777862548828 182.25555419921875,189.7777862548828 182.25555419921875,191.01234436035156 182.25555419921875,192.24693298339844 185.86666107177734,192.24693298339844 185.86666107177734,192.24693298339844 185.86666107177734,191.01234436035156 183.4592514038086,191.01234436035156 182.25555419921875,192.24693298339844 182.25555419921875,194.71604919433594 182.25555419921875,194.71604919433594 182.25555419921875,197.1851806640625 181.0518569946289,197.1851806640625 181.0518569946289,197.1851806640625 181.0518569946289,195.9506072998047 181.0518569946289,195.9506072998047 185.86666107177734,195.9506072998047 185.86666107177734,194.71604919433594 185.86666107177734,194.71604919433594 187.07036590576172,194.71604919433594 188.2740707397461,194.71604919433594 190.68148040771484,194.71604919433594 190.68148040771484,192.24693298339844 188.2740707397461,192.24693298339844 188.2740707397461,192.24693298339844 185.86666107177734,192.24693298339844 185.86666107177734,192.24693298339844 183.4592514038086,192.24693298339844 183.4592514038086,194.71604919433594 183.4592514038086,194.71604919433594 185.86666107177734,194.71604919433594 187.07036590576172,194.71604919433594 188.2740707397461,194.71604919433594 185.86666107177734,197.1851806640625 183.4592514038086,197.1851806640625 182.25555419921875,197.1851806640625 181.0518569946289,197.1851806640625 181.0518569946289,195.9506072998047 181.0518569946289,194.71604919433594 181.0518569946289,194.71604919433594 182.25555419921875,194.71604919433594 185.86666107177734,197.1851806640625 185.86666107177734,197.1851806640625 185.86666107177734,197.1851806640625 183.4592514038086,197.1851806640625 182.25555419921875,197.1851806640625 182.25555419921875,199.65432739257812 181.0518569946289,199.65432739257812 181.0518569946289,200.88888549804688 181.0518569946289,200.88888549804688 182.25555419921875,200.88888549804688 185.86666107177734,200.88888549804688 185.86666107177734,199.65432739257812 185.86666107177734,199.65432739257812 185.86666107177734,197.1851806640625 185.86666107177734,195.9506072998047 187.07036590576172,195.9506072998047 187.07036590576172,194.71604919433594 188.2740707397461,194.71604919433594 190.68148040771484,194.71604919433594 190.68148040771484,197.1851806640625 190.68148040771484,197.1851806640625 190.68148040771484,197.1851806640625 190.68148040771484,199.65432739257812 190.68148040771484,199.65432739257812 190.68148040771484,199.65432739257812 185.86666107177734,199.65432739257812 185.86666107177734,199.65432739257812 183.4592514038086,199.65432739257812 182.25555419921875,199.65432739257812 182.25555419921875,197.1851806640625 183.4592514038086,197.1851806640625 185.86666107177734,197.1851806640625 185.86666107177734,197.1851806640625 188.2740707397461,197.1851806640625 188.2740707397461,199.65432739257812 188.2740707397461,200.88888549804688 187.07036590576172,200.88888549804688 185.86666107177734,200.88888549804688 185.86666107177734,200.88888549804688 " style="color: rgb(0, 0, 0);" class=""/><polyline fill="none" stroke="#222222" stroke-width="2" stroke-linejoin="round" stroke-dashoffset="" fill-rule="nonzero" marker-start="" marker-mid="" marker-end="" points="182.53334617614746,199.40740394592285 183.73703575134277,196.9382724761963 187.3481502532959,196.9382724761963 187.3481502532959,194.4691562652588 187.3481502532959,194.4691562652588 187.3481502532959,193.2345676422119 187.3481502532959,192.00000953674316 184.94074058532715,192.00000953674316 183.73703575134277,192.00000953674316 183.73703575134277,192.00000953674316 183.73703575134277,193.2345676422119 183.73703575134277,194.4691562652588 187.3481502532959,194.4691562652588 187.3481502532959,194.4691562652588 187.3481502532959,193.2345676422119 184.94074058532715,193.2345676422119 183.73703575134277,194.4691562652588 183.73703575134277,196.9382724761963 183.73703575134277,196.9382724761963 183.73703575134277,199.40740394592285 182.53334617614746,199.40740394592285 182.53334617614746,199.40740394592285 182.53334617614746,198.17283058166504 182.53334617614746,198.17283058166504 187.3481502532959,198.17283058166504 187.3481502532959,196.9382724761963 187.3481502532959,196.9382724761963 188.55185508728027,196.9382724761963 189.75555992126465,196.9382724761963 192.1629695892334,196.9382724761963 192.1629695892334,194.4691562652588 189.75555992126465,194.4691562652588 189.75555992126465,194.4691562652588 187.3481502532959,194.4691562652588 187.3481502532959,194.4691562652588 184.94074058532715,194.4691562652588 184.94074058532715,196.9382724761963 184.94074058532715,196.9382724761963 187.3481502532959,196.9382724761963 188.55185508728027,196.9382724761963 189.75555992126465,196.9382724761963 187.3481502532959,199.40740394592285 184.94074058532715,199.40740394592285 183.73703575134277,199.40740394592285 182.53334617614746,199.40740394592285 182.53334617614746,198.17283058166504 182.53334617614746,196.9382724761963 182.53334617614746,196.9382724761963 183.73703575134277,196.9382724761963 187.3481502532959,199.40740394592285 187.3481502532959,199.40740394592285 187.3481502532959,199.40740394592285 184.94074058532715,199.40740394592285 183.73703575134277,199.40740394592285 183.73703575134277,201.87655067443848 182.53334617614746,201.87655067443848 182.53334617614746,203.11110877990723 182.53334617614746,203.11110877990723 183.73703575134277,203.11110877990723 187.3481502532959,203.11110877990723 187.3481502532959,201.87655067443848 187.3481502532959,201.87655067443848 187.3481502532959,199.40740394592285 187.3481502532959,198.17283058166504 188.55185508728027,198.17283058166504 188.55185508728027,196.9382724761963 189.75555992126465,196.9382724761963 192.1629695892334,196.9382724761963 192.1629695892334,199.40740394592285 192.1629695892334,199.40740394592285 192.1629695892334,199.40740394592285 192.1629695892334,201.87655067443848 192.1629695892334,201.87655067443848 192.1629695892334,201.87655067443848 187.3481502532959,201.87655067443848 187.3481502532959,201.87655067443848 184.94074058532715,201.87655067443848 183.73703575134277,201.87655067443848 183.73703575134277,199.40740394592285 184.94074058532715,199.40740394592285 187.3481502532959,199.40740394592285 187.3481502532959,199.40740394592285 189.75555992126465,199.40740394592285 189.75555992126465,201.87655067443848 189.75555992126465,203.11110877990723 188.55185508728027,203.11110877990723 187.3481502532959,203.11110877990723 187.3481502532959,203.11110877990723 " style="color: rgb(0, 0, 0);" class="" id="svg_12"/><rect fill="none" stroke="#222222" stroke-width="20" stroke-linejoin="round" stroke-dashoffset="" fill-rule="nonzero" id="svg_13" x="174.62962341308594" y="346.2592468261719" width="3" height="1" style="color: rgb(0, 0, 0);" class=""/><rect fill="none" stroke="#222222" stroke-width="20" stroke-linejoin="round" stroke-dashoffset="" fill-rule="nonzero" x="346.4814758300781" y="305.5185241699219" width="3" height="1" style="color: rgb(0, 0, 0);" class="" id="svg_15"/><rect fill="none" stroke="#222222" stroke-width="20" stroke-linejoin="round" stroke-dashoffset="" fill-rule="nonzero" x="348.7037048339844" y="168.48150634765625" width="3" height="1" style="color: rgb(0, 0, 0);" class="" id="svg_16"/><rect fill="none" stroke="#222222" stroke-width="20" stroke-linejoin="round" stroke-dashoffset="" fill-rule="nonzero" x="436.85186767578125" y="307.0000305175781" width="3" height="1" style="color: rgb(0, 0, 0);" class="" id="svg_17"/><rect fill="#ffffff" stroke="#222222" stroke-width="20" stroke-linejoin="round" stroke-dashoffset="" fill-rule="nonzero" x="517.5925903320312" y="239.59263610839844" width="3" height="1" style="color: rgb(0, 0, 0);" class="" id="svg_18" fill-opacity="1"/><rect fill="#ffffff" stroke="#ffffff" stroke-width="10" stroke-linejoin="round" stroke-dashoffset="" fill-rule="nonzero" x="465.74066162109375" y="222.06179809570312" width="0.7777837514877319" height="0.25926125049591064" style="color: rgb(0, 0, 0);" class="" id="svg_19" fill-opacity="1" stroke-opacity="1"/></g></svg>