<?xml version="1.0" encoding="utf-8"?>
<!-- Generator: Adobe Illustrator 16.0.0, SVG Export Plug-In . SVG Version: 6.00 Build 0)  -->
<!DOCTYPE svg PUBLIC "-//W3C//DTD SVG 1.1//EN" "http://www.w3.org/Graphics/SVG/1.1/DTD/svg11.dtd">
<svg version="1.1" id="Layer_1" xmlns="http://www.w3.org/2000/svg" xmlns:xlink="http://www.w3.org/1999/xlink" x="0px" y="0px"
	 width="288px" height="288px" viewBox="0 0 288 288" enable-background="new 0 0 288 288" xml:space="preserve">
<g>
	<g>
		<path fill="#010101" d="M163.12,31.813c10.044,46.218,20.088,92.436,30.133,138.653c6.259,28.799,12.518,57.597,18.776,86.396
			c1.736,7.991,10.899,12.554,18.451,10.477c8.199-2.255,12.212-10.469,10.477-18.451c-10.044-46.218-20.088-92.436-30.133-138.653
			c-6.259-28.799-12.518-57.598-18.776-86.396c-1.736-7.991-10.899-12.554-18.451-10.477
			C165.397,15.617,161.385,23.831,163.12,31.813L163.12,31.813z"/>
	</g>
</g>
<g>
	<g>
		<path fill="#FFFFFF" d="M152.686,220.442c20.663-44.441,41.326-88.884,61.988-133.326c8.258-17.759,16.515-35.519,24.771-53.278
			c3.447-7.414,2.157-16.106-5.382-20.523c-6.551-3.837-17.075-2.033-20.522,5.381c-20.663,44.442-41.326,88.884-61.988,133.326
			c-8.257,17.76-16.515,35.519-24.771,53.278c-3.447,7.414-2.158,16.106,5.381,20.522
			C138.714,229.662,149.238,227.857,152.686,220.442L152.686,220.442z"/>
	</g>
</g>
<path fill="none" d="M0,0h289v289H0V0z"/>
<g>
	<g>
		<path d="M101.882,42.826c25.234,0,50.467,0,75.702,0c19.346,0,19.346-30,0-30c-25.234,0-50.468,0-75.702,0
			C82.536,12.826,82.536,42.826,101.882,42.826L101.882,42.826z"/>
	</g>
</g>
<g>
	<g>
		<path d="M52.973,267.875c49.838,0,99.677,0,149.516,0c8.001,0,16.003,0,24.004,0c19.346,0,19.346-30,0-30
			c-49.839,0-99.677,0-149.516,0c-8.001,0-16.003,0-24.004,0C33.627,237.875,33.627,267.875,52.973,267.875L52.973,267.875z"/>
	</g>
</g>
<g>
	<g>
		<path fill="#010101" d="M87.418,23.838C77.374,70.056,67.33,116.273,57.285,162.491c-6.259,28.799-12.518,57.598-18.776,86.396
			c-1.735,7.982,2.277,16.196,10.477,18.451c7.552,2.077,16.715-2.485,18.452-10.477c10.044-46.218,20.088-92.436,30.133-138.653
			c6.259-28.799,12.518-57.598,18.776-86.396c1.735-7.983-2.277-16.197-10.477-18.452C98.318,11.284,89.155,15.847,87.418,23.838
			L87.418,23.838z"/>
	</g>
</g>
<g>
	<g>
		<path d="M149.447,218.55c20.877-44.901,41.753-89.803,62.63-134.705c6.64-14.281,13.28-28.563,19.92-42.844
			c2.586-5.561,1.618-12.08-4.036-15.392c-4.913-2.878-12.807-1.525-15.392,4.036c-20.877,44.902-41.753,89.804-62.63,134.706
			c-6.64,14.281-13.28,28.563-19.92,42.845c-2.585,5.561-1.619,12.079,4.036,15.392C138.969,225.464,146.862,224.11,149.447,218.55
			L149.447,218.55z"/>
	</g>
</g>
<circle stroke="#000000" stroke-miterlimit="10" cx="222.283" cy="36.568" r="19.473"/>
</svg>
